<mxfile host="app.diagrams.net" agent="Mozilla/5.0 (Windows NT 10.0; Win64; x64) AppleWebKit/537.36 (KHTML, like Gecko) Chrome/141.0.0.0 Safari/537.36 Edg/141.0.0.0" version="28.2.7" pages="2">
  <diagram name="ER (Final)" id="K_wPfEQJmZxsNJ2FFnrC">
    <mxGraphModel dx="3101" dy="696" grid="1" gridSize="10" guides="1" tooltips="1" connect="1" arrows="1" fold="1" page="1" pageScale="1" pageWidth="827" pageHeight="1169" math="0" shadow="0">
      <root>
        <mxCell id="yN5xq2XGs1i5apmsiF2Z-0" />
        <mxCell id="yN5xq2XGs1i5apmsiF2Z-1" parent="yN5xq2XGs1i5apmsiF2Z-0" />
        <mxCell id="yN5xq2XGs1i5apmsiF2Z-10" style="edgeStyle=none;rounded=0;orthogonalLoop=1;jettySize=auto;html=1;endArrow=none;startFill=0;" parent="yN5xq2XGs1i5apmsiF2Z-1" source="yN5xq2XGs1i5apmsiF2Z-16" edge="1">
          <mxGeometry relative="1" as="geometry">
            <mxPoint x="-240" y="570" as="targetPoint" />
          </mxGeometry>
        </mxCell>
        <mxCell id="YrKaeUCYNQfRJ1UZe-Y2-6" value="1" style="edgeLabel;html=1;align=center;verticalAlign=middle;resizable=0;points=[];" vertex="1" connectable="0" parent="yN5xq2XGs1i5apmsiF2Z-10">
          <mxGeometry x="-0.5969" y="1" relative="1" as="geometry">
            <mxPoint as="offset" />
          </mxGeometry>
        </mxCell>
        <mxCell id="yN5xq2XGs1i5apmsiF2Z-12" value="" style="edgeStyle=none;rounded=0;orthogonalLoop=1;jettySize=auto;html=1;elbow=vertical;entryX=1;entryY=0.5;entryDx=0;entryDy=0;endArrow=none;endFill=0;exitX=0.006;exitY=0.868;exitDx=0;exitDy=0;exitPerimeter=0;" parent="yN5xq2XGs1i5apmsiF2Z-1" source="yN5xq2XGs1i5apmsiF2Z-16" target="yN5xq2XGs1i5apmsiF2Z-117" edge="1">
          <mxGeometry relative="1" as="geometry">
            <mxPoint x="-280" y="480" as="sourcePoint" />
          </mxGeometry>
        </mxCell>
        <mxCell id="yN5xq2XGs1i5apmsiF2Z-13" value="1" style="edgeLabel;html=1;align=center;verticalAlign=middle;resizable=0;points=[];" parent="yN5xq2XGs1i5apmsiF2Z-12" vertex="1" connectable="0">
          <mxGeometry x="-0.8733" y="-4" relative="1" as="geometry">
            <mxPoint as="offset" />
          </mxGeometry>
        </mxCell>
        <mxCell id="yN5xq2XGs1i5apmsiF2Z-14" value="" style="edgeStyle=none;rounded=0;orthogonalLoop=1;jettySize=auto;html=1;elbow=vertical;endArrow=none;startFill=0;" parent="yN5xq2XGs1i5apmsiF2Z-1" source="yN5xq2XGs1i5apmsiF2Z-16" target="yN5xq2XGs1i5apmsiF2Z-123" edge="1">
          <mxGeometry relative="1" as="geometry" />
        </mxCell>
        <mxCell id="8R0NrlY3fTD52CinZhNA-6" value="1" style="edgeLabel;html=1;align=center;verticalAlign=middle;resizable=0;points=[];" parent="yN5xq2XGs1i5apmsiF2Z-14" vertex="1" connectable="0">
          <mxGeometry x="-0.8627" y="1" relative="1" as="geometry">
            <mxPoint y="-1" as="offset" />
          </mxGeometry>
        </mxCell>
        <mxCell id="4ciwaqx_qGnWYxOkdzXC-29" style="rounded=0;orthogonalLoop=1;jettySize=auto;html=1;entryX=1;entryY=0.5;entryDx=0;entryDy=0;endArrow=none;endFill=0;" parent="yN5xq2XGs1i5apmsiF2Z-1" source="yN5xq2XGs1i5apmsiF2Z-16" target="4ciwaqx_qGnWYxOkdzXC-21" edge="1">
          <mxGeometry relative="1" as="geometry">
            <mxPoint x="-360" y="450" as="targetPoint" />
          </mxGeometry>
        </mxCell>
        <mxCell id="4ciwaqx_qGnWYxOkdzXC-32" style="edgeStyle=none;rounded=0;orthogonalLoop=1;jettySize=auto;html=1;entryX=1;entryY=1;entryDx=0;entryDy=0;endArrow=none;endFill=0;" parent="yN5xq2XGs1i5apmsiF2Z-1" source="yN5xq2XGs1i5apmsiF2Z-16" target="4ciwaqx_qGnWYxOkdzXC-15" edge="1">
          <mxGeometry relative="1" as="geometry" />
        </mxCell>
        <mxCell id="4ciwaqx_qGnWYxOkdzXC-33" style="edgeStyle=none;rounded=0;orthogonalLoop=1;jettySize=auto;html=1;entryX=0.5;entryY=1;entryDx=0;entryDy=0;endArrow=none;endFill=0;" parent="yN5xq2XGs1i5apmsiF2Z-1" source="yN5xq2XGs1i5apmsiF2Z-16" target="4ciwaqx_qGnWYxOkdzXC-17" edge="1">
          <mxGeometry relative="1" as="geometry" />
        </mxCell>
        <mxCell id="yN5xq2XGs1i5apmsiF2Z-16" value="STUDENT" style="whiteSpace=wrap;html=1;rounded=0;" parent="yN5xq2XGs1i5apmsiF2Z-1" vertex="1">
          <mxGeometry x="-290" y="449.98" width="70" height="30" as="geometry" />
        </mxCell>
        <mxCell id="yN5xq2XGs1i5apmsiF2Z-17" value="ADMIN" style="whiteSpace=wrap;html=1;rounded=0;" parent="yN5xq2XGs1i5apmsiF2Z-1" vertex="1">
          <mxGeometry x="260" y="387.98" width="70" height="30" as="geometry" />
        </mxCell>
        <mxCell id="8ko9bemNTCcN91BI28nj-15" style="rounded=0;orthogonalLoop=1;jettySize=auto;html=1;entryX=0.5;entryY=0;entryDx=0;entryDy=0;endArrow=none;endFill=0;" parent="yN5xq2XGs1i5apmsiF2Z-1" source="yN5xq2XGs1i5apmsiF2Z-18" target="8ko9bemNTCcN91BI28nj-6" edge="1">
          <mxGeometry relative="1" as="geometry" />
        </mxCell>
        <mxCell id="8ko9bemNTCcN91BI28nj-18" style="edgeStyle=none;rounded=0;orthogonalLoop=1;jettySize=auto;html=1;entryX=0;entryY=0.5;entryDx=0;entryDy=0;endArrow=none;endFill=0;" parent="yN5xq2XGs1i5apmsiF2Z-1" source="yN5xq2XGs1i5apmsiF2Z-18" target="8ko9bemNTCcN91BI28nj-2" edge="1">
          <mxGeometry relative="1" as="geometry" />
        </mxCell>
        <mxCell id="yN5xq2XGs1i5apmsiF2Z-18" value="DEAN" style="whiteSpace=wrap;html=1;rounded=0;" parent="yN5xq2XGs1i5apmsiF2Z-1" vertex="1">
          <mxGeometry x="602.5" y="380" width="70" height="30" as="geometry" />
        </mxCell>
        <mxCell id="yN5xq2XGs1i5apmsiF2Z-19" style="edgeStyle=none;rounded=0;orthogonalLoop=1;jettySize=auto;html=1;entryX=1;entryY=0.5;entryDx=0;entryDy=0;elbow=vertical;endArrow=none;startFill=0;" parent="yN5xq2XGs1i5apmsiF2Z-1" source="yN5xq2XGs1i5apmsiF2Z-21" target="yN5xq2XGs1i5apmsiF2Z-114" edge="1">
          <mxGeometry relative="1" as="geometry" />
        </mxCell>
        <mxCell id="yN5xq2XGs1i5apmsiF2Z-20" value="1" style="edgeLabel;html=1;align=center;verticalAlign=middle;resizable=0;points=[];" parent="yN5xq2XGs1i5apmsiF2Z-19" vertex="1" connectable="0">
          <mxGeometry x="-0.8159" y="5" relative="1" as="geometry">
            <mxPoint x="-7" y="3" as="offset" />
          </mxGeometry>
        </mxCell>
        <mxCell id="yN5xq2XGs1i5apmsiF2Z-21" value="LECTURER" style="whiteSpace=wrap;html=1;rounded=0;" parent="yN5xq2XGs1i5apmsiF2Z-1" vertex="1">
          <mxGeometry x="970" y="393.88" width="85" height="30" as="geometry" />
        </mxCell>
        <mxCell id="yN5xq2XGs1i5apmsiF2Z-22" value="TECH_OFFICER" style="whiteSpace=wrap;html=1;rounded=0;" parent="yN5xq2XGs1i5apmsiF2Z-1" vertex="1">
          <mxGeometry x="-850" y="393.88" width="110" height="27.5" as="geometry" />
        </mxCell>
        <mxCell id="yN5xq2XGs1i5apmsiF2Z-45" style="edgeStyle=none;rounded=0;orthogonalLoop=1;jettySize=auto;html=1;entryX=0;entryY=0.5;entryDx=0;entryDy=0;elbow=vertical;endArrow=none;startFill=0;" parent="yN5xq2XGs1i5apmsiF2Z-1" source="yN5xq2XGs1i5apmsiF2Z-50" target="yN5xq2XGs1i5apmsiF2Z-114" edge="1">
          <mxGeometry relative="1" as="geometry" />
        </mxCell>
        <mxCell id="yN5xq2XGs1i5apmsiF2Z-46" value="1" style="edgeLabel;html=1;align=center;verticalAlign=middle;resizable=0;points=[];" parent="yN5xq2XGs1i5apmsiF2Z-45" vertex="1" connectable="0">
          <mxGeometry x="-0.6753" relative="1" as="geometry">
            <mxPoint as="offset" />
          </mxGeometry>
        </mxCell>
        <mxCell id="yN5xq2XGs1i5apmsiF2Z-50" value="COURSE" style="rounded=0;whiteSpace=wrap;html=1;" parent="yN5xq2XGs1i5apmsiF2Z-1" vertex="1">
          <mxGeometry x="189" y="1011.35" width="100" height="40" as="geometry" />
        </mxCell>
        <mxCell id="yN5xq2XGs1i5apmsiF2Z-51" style="edgeStyle=none;rounded=0;orthogonalLoop=1;jettySize=auto;html=1;endArrow=none;startFill=0;" parent="yN5xq2XGs1i5apmsiF2Z-1" source="yN5xq2XGs1i5apmsiF2Z-52" target="yN5xq2XGs1i5apmsiF2Z-50" edge="1">
          <mxGeometry relative="1" as="geometry" />
        </mxCell>
        <mxCell id="yN5xq2XGs1i5apmsiF2Z-52" value="&lt;u&gt;C_code&lt;/u&gt;" style="ellipse;whiteSpace=wrap;html=1;align=center;" parent="yN5xq2XGs1i5apmsiF2Z-1" vertex="1">
          <mxGeometry x="104" y="950" width="70" height="30" as="geometry" />
        </mxCell>
        <mxCell id="yN5xq2XGs1i5apmsiF2Z-53" style="edgeStyle=none;rounded=0;orthogonalLoop=1;jettySize=auto;html=1;entryX=0.143;entryY=0.999;entryDx=0;entryDy=0;endArrow=none;startFill=0;entryPerimeter=0;" parent="yN5xq2XGs1i5apmsiF2Z-1" source="yN5xq2XGs1i5apmsiF2Z-54" target="yN5xq2XGs1i5apmsiF2Z-50" edge="1">
          <mxGeometry relative="1" as="geometry" />
        </mxCell>
        <mxCell id="yN5xq2XGs1i5apmsiF2Z-54" value="C_name" style="ellipse;whiteSpace=wrap;html=1;align=center;" parent="yN5xq2XGs1i5apmsiF2Z-1" vertex="1">
          <mxGeometry x="117.5" y="1115.69" width="70" height="30" as="geometry" />
        </mxCell>
        <mxCell id="yN5xq2XGs1i5apmsiF2Z-55" style="edgeStyle=none;rounded=0;orthogonalLoop=1;jettySize=auto;html=1;entryX=0.75;entryY=1;entryDx=0;entryDy=0;endArrow=none;startFill=0;" parent="yN5xq2XGs1i5apmsiF2Z-1" source="yN5xq2XGs1i5apmsiF2Z-56" target="yN5xq2XGs1i5apmsiF2Z-50" edge="1">
          <mxGeometry relative="1" as="geometry" />
        </mxCell>
        <mxCell id="yN5xq2XGs1i5apmsiF2Z-56" value="Credit" style="ellipse;whiteSpace=wrap;html=1;align=center;" parent="yN5xq2XGs1i5apmsiF2Z-1" vertex="1">
          <mxGeometry x="240" y="1110.69" width="70" height="30" as="geometry" />
        </mxCell>
        <mxCell id="yN5xq2XGs1i5apmsiF2Z-59" value="MEDICAL" style="rounded=0;whiteSpace=wrap;html=1;" parent="yN5xq2XGs1i5apmsiF2Z-1" vertex="1">
          <mxGeometry x="-1013.25" y="795.87" width="100" height="40" as="geometry" />
        </mxCell>
        <mxCell id="yN5xq2XGs1i5apmsiF2Z-60" style="edgeStyle=none;rounded=0;orthogonalLoop=1;jettySize=auto;html=1;endArrow=none;startFill=0;" parent="yN5xq2XGs1i5apmsiF2Z-1" source="yN5xq2XGs1i5apmsiF2Z-61" target="yN5xq2XGs1i5apmsiF2Z-59" edge="1">
          <mxGeometry relative="1" as="geometry" />
        </mxCell>
        <mxCell id="yN5xq2XGs1i5apmsiF2Z-61" value="&lt;u&gt;Medical_id&lt;/u&gt;" style="ellipse;whiteSpace=wrap;html=1;align=center;" parent="yN5xq2XGs1i5apmsiF2Z-1" vertex="1">
          <mxGeometry x="-1118.25" y="755.87" width="70" height="30" as="geometry" />
        </mxCell>
        <mxCell id="yN5xq2XGs1i5apmsiF2Z-62" style="edgeStyle=none;rounded=0;orthogonalLoop=1;jettySize=auto;html=1;entryX=0;entryY=0.5;entryDx=0;entryDy=0;endArrow=none;startFill=0;" parent="yN5xq2XGs1i5apmsiF2Z-1" source="yN5xq2XGs1i5apmsiF2Z-63" target="yN5xq2XGs1i5apmsiF2Z-59" edge="1">
          <mxGeometry relative="1" as="geometry" />
        </mxCell>
        <mxCell id="yN5xq2XGs1i5apmsiF2Z-63" value="Date_submitted" style="ellipse;whiteSpace=wrap;html=1;align=center;" parent="yN5xq2XGs1i5apmsiF2Z-1" vertex="1">
          <mxGeometry x="-1148.25" y="805.87" width="100" height="30" as="geometry" />
        </mxCell>
        <mxCell id="yN5xq2XGs1i5apmsiF2Z-64" style="edgeStyle=none;rounded=0;orthogonalLoop=1;jettySize=auto;html=1;entryX=0.853;entryY=1.013;entryDx=0;entryDy=0;entryPerimeter=0;endArrow=none;startFill=0;" parent="yN5xq2XGs1i5apmsiF2Z-1" source="yN5xq2XGs1i5apmsiF2Z-65" target="yN5xq2XGs1i5apmsiF2Z-59" edge="1">
          <mxGeometry relative="1" as="geometry" />
        </mxCell>
        <mxCell id="yN5xq2XGs1i5apmsiF2Z-65" value="Status&lt;div&gt;&lt;font style=&quot;font-size: 7px;&quot;&gt;(Approved or not)&lt;/font&gt;&lt;/div&gt;" style="ellipse;whiteSpace=wrap;html=1;align=center;" parent="yN5xq2XGs1i5apmsiF2Z-1" vertex="1">
          <mxGeometry x="-966.25" y="875.87" width="90" height="40" as="geometry" />
        </mxCell>
        <mxCell id="yN5xq2XGs1i5apmsiF2Z-86" value="ATTENDANCE" style="shape=ext;margin=3;double=1;whiteSpace=wrap;html=1;align=center;" parent="yN5xq2XGs1i5apmsiF2Z-1" vertex="1">
          <mxGeometry x="-824" y="1100.73" width="100" height="40" as="geometry" />
        </mxCell>
        <mxCell id="yN5xq2XGs1i5apmsiF2Z-95" value="MARK" style="shape=ext;margin=3;double=1;whiteSpace=wrap;html=1;align=center;" parent="yN5xq2XGs1i5apmsiF2Z-1" vertex="1">
          <mxGeometry x="-290.5" y="707.5" width="129" height="40" as="geometry" />
        </mxCell>
        <mxCell id="yN5xq2XGs1i5apmsiF2Z-100" style="edgeStyle=none;rounded=0;orthogonalLoop=1;jettySize=auto;html=1;entryX=0;entryY=1;entryDx=0;entryDy=0;endArrow=none;startFill=0;" parent="yN5xq2XGs1i5apmsiF2Z-1" source="yN5xq2XGs1i5apmsiF2Z-101" target="yN5xq2XGs1i5apmsiF2Z-95" edge="1">
          <mxGeometry relative="1" as="geometry">
            <mxPoint x="-374.5000000000002" y="748.94" as="targetPoint" />
          </mxGeometry>
        </mxCell>
        <mxCell id="yN5xq2XGs1i5apmsiF2Z-101" value="Marks" style="ellipse;whiteSpace=wrap;html=1;align=center;" parent="yN5xq2XGs1i5apmsiF2Z-1" vertex="1">
          <mxGeometry x="-408.5" y="772.5" width="70" height="35" as="geometry" />
        </mxCell>
        <mxCell id="yN5xq2XGs1i5apmsiF2Z-102" style="edgeStyle=none;rounded=0;orthogonalLoop=1;jettySize=auto;html=1;entryX=0.5;entryY=0;entryDx=0;entryDy=0;endArrow=none;startFill=0;" parent="yN5xq2XGs1i5apmsiF2Z-1" source="yN5xq2XGs1i5apmsiF2Z-104" target="yN5xq2XGs1i5apmsiF2Z-50" edge="1">
          <mxGeometry relative="1" as="geometry" />
        </mxCell>
        <mxCell id="yN5xq2XGs1i5apmsiF2Z-103" value="M" style="edgeLabel;html=1;align=center;verticalAlign=middle;resizable=0;points=[];" parent="yN5xq2XGs1i5apmsiF2Z-102" vertex="1" connectable="0">
          <mxGeometry x="0.4484" y="-1" relative="1" as="geometry">
            <mxPoint x="9" y="27" as="offset" />
          </mxGeometry>
        </mxCell>
        <mxCell id="yN5xq2XGs1i5apmsiF2Z-104" value="ENROLLS_IN" style="rhombus;whiteSpace=wrap;html=1;" parent="yN5xq2XGs1i5apmsiF2Z-1" vertex="1">
          <mxGeometry x="-18.75" y="695" width="132.5" height="60" as="geometry" />
        </mxCell>
        <mxCell id="yN5xq2XGs1i5apmsiF2Z-105" style="edgeStyle=none;rounded=0;orthogonalLoop=1;jettySize=auto;html=1;endArrow=none;startFill=0;" parent="yN5xq2XGs1i5apmsiF2Z-1" source="yN5xq2XGs1i5apmsiF2Z-106" target="yN5xq2XGs1i5apmsiF2Z-104" edge="1">
          <mxGeometry relative="1" as="geometry" />
        </mxCell>
        <mxCell id="yN5xq2XGs1i5apmsiF2Z-106" value="Academic_yr" style="ellipse;whiteSpace=wrap;html=1;align=center;" parent="yN5xq2XGs1i5apmsiF2Z-1" vertex="1">
          <mxGeometry x="100" y="765" width="90" height="35" as="geometry" />
        </mxCell>
        <mxCell id="yN5xq2XGs1i5apmsiF2Z-107" value="Sem" style="ellipse;whiteSpace=wrap;html=1;align=center;" parent="yN5xq2XGs1i5apmsiF2Z-1" vertex="1">
          <mxGeometry x="150" y="682.5" width="40" height="20" as="geometry" />
        </mxCell>
        <mxCell id="yN5xq2XGs1i5apmsiF2Z-108" style="edgeStyle=none;rounded=0;orthogonalLoop=1;jettySize=auto;html=1;endArrow=none;startFill=0;" parent="yN5xq2XGs1i5apmsiF2Z-1" source="yN5xq2XGs1i5apmsiF2Z-107" edge="1">
          <mxGeometry relative="1" as="geometry">
            <mxPoint x="80" y="710" as="targetPoint" />
          </mxGeometry>
        </mxCell>
        <mxCell id="yN5xq2XGs1i5apmsiF2Z-109" value="Status" style="ellipse;whiteSpace=wrap;html=1;align=center;" parent="yN5xq2XGs1i5apmsiF2Z-1" vertex="1">
          <mxGeometry x="-114.5" y="650" width="70" height="32.5" as="geometry" />
        </mxCell>
        <mxCell id="yN5xq2XGs1i5apmsiF2Z-110" style="edgeStyle=none;rounded=0;orthogonalLoop=1;jettySize=auto;html=1;entryX=0.325;entryY=0.171;entryDx=0;entryDy=0;entryPerimeter=0;endArrow=none;startFill=0;" parent="yN5xq2XGs1i5apmsiF2Z-1" source="yN5xq2XGs1i5apmsiF2Z-109" target="yN5xq2XGs1i5apmsiF2Z-104" edge="1">
          <mxGeometry relative="1" as="geometry" />
        </mxCell>
        <mxCell id="yN5xq2XGs1i5apmsiF2Z-114" value="TEACHES" style="rhombus;whiteSpace=wrap;html=1;" parent="yN5xq2XGs1i5apmsiF2Z-1" vertex="1">
          <mxGeometry x="472.5" y="750" width="112.5" height="50" as="geometry" />
        </mxCell>
        <mxCell id="yN5xq2XGs1i5apmsiF2Z-115" style="edgeStyle=none;rounded=0;orthogonalLoop=1;jettySize=auto;html=1;entryX=0.25;entryY=0;entryDx=0;entryDy=0;elbow=vertical;endArrow=none;startFill=0;exitX=0;exitY=0.5;exitDx=0;exitDy=0;" parent="yN5xq2XGs1i5apmsiF2Z-1" source="yN5xq2XGs1i5apmsiF2Z-117" target="yN5xq2XGs1i5apmsiF2Z-59" edge="1">
          <mxGeometry relative="1" as="geometry" />
        </mxCell>
        <mxCell id="yN5xq2XGs1i5apmsiF2Z-116" value="M" style="edgeLabel;html=1;align=center;verticalAlign=middle;resizable=0;points=[];" parent="yN5xq2XGs1i5apmsiF2Z-115" vertex="1" connectable="0">
          <mxGeometry x="0.5698" y="-3" relative="1" as="geometry">
            <mxPoint x="14" y="20" as="offset" />
          </mxGeometry>
        </mxCell>
        <mxCell id="yN5xq2XGs1i5apmsiF2Z-117" value="SUBMITS" style="rhombus;whiteSpace=wrap;html=1;rounded=0;" parent="yN5xq2XGs1i5apmsiF2Z-1" vertex="1">
          <mxGeometry x="-942.75" y="634.13" width="121" height="55" as="geometry" />
        </mxCell>
        <mxCell id="yN5xq2XGs1i5apmsiF2Z-121" style="edgeStyle=none;rounded=0;orthogonalLoop=1;jettySize=auto;html=1;entryX=0.5;entryY=0;entryDx=0;entryDy=0;elbow=vertical;endArrow=none;startFill=0;exitX=0.5;exitY=1;exitDx=0;exitDy=0;" parent="yN5xq2XGs1i5apmsiF2Z-1" source="yN5xq2XGs1i5apmsiF2Z-123" target="yN5xq2XGs1i5apmsiF2Z-86" edge="1">
          <mxGeometry relative="1" as="geometry">
            <mxPoint x="-778" y="1322.68" as="targetPoint" />
          </mxGeometry>
        </mxCell>
        <mxCell id="8R0NrlY3fTD52CinZhNA-7" value="N" style="edgeLabel;html=1;align=center;verticalAlign=middle;resizable=0;points=[];" parent="yN5xq2XGs1i5apmsiF2Z-121" vertex="1" connectable="0">
          <mxGeometry x="0.7902" y="-1" relative="1" as="geometry">
            <mxPoint x="20" y="98" as="offset" />
          </mxGeometry>
        </mxCell>
        <mxCell id="ek2N7RcGhcBZ1Ensz346-35" value="M" style="edgeLabel;html=1;align=center;verticalAlign=middle;resizable=0;points=[];" parent="yN5xq2XGs1i5apmsiF2Z-121" vertex="1" connectable="0">
          <mxGeometry x="0.7961" y="-3" relative="1" as="geometry">
            <mxPoint as="offset" />
          </mxGeometry>
        </mxCell>
        <mxCell id="yN5xq2XGs1i5apmsiF2Z-123" value="HAS" style="shape=rhombus;double=1;perimeter=rhombusPerimeter;whiteSpace=wrap;html=1;align=center;" parent="yN5xq2XGs1i5apmsiF2Z-1" vertex="1">
          <mxGeometry x="-821.75" y="805.87" width="100" height="45" as="geometry" />
        </mxCell>
        <mxCell id="yN5xq2XGs1i5apmsiF2Z-130" style="rounded=0;orthogonalLoop=1;jettySize=auto;html=1;entryX=0;entryY=1;entryDx=0;entryDy=0;endArrow=none;endFill=0;" parent="yN5xq2XGs1i5apmsiF2Z-1" source="yN5xq2XGs1i5apmsiF2Z-131" target="yN5xq2XGs1i5apmsiF2Z-59" edge="1">
          <mxGeometry relative="1" as="geometry" />
        </mxCell>
        <mxCell id="yN5xq2XGs1i5apmsiF2Z-131" value="&lt;span style=&quot;color: rgb(255, 255, 255); text-decoration-line: underline;&quot;&gt;St_id&lt;/span&gt;" style="ellipse;whiteSpace=wrap;html=1;align=center;fillColor=#008a00;fontColor=#ffffff;strokeColor=#005700;" parent="yN5xq2XGs1i5apmsiF2Z-1" vertex="1">
          <mxGeometry x="-1062.75" y="868.37" width="49.5" height="30" as="geometry" />
        </mxCell>
        <mxCell id="yN5xq2XGs1i5apmsiF2Z-134" value="Dpt name" style="ellipse;whiteSpace=wrap;html=1;align=center;" parent="yN5xq2XGs1i5apmsiF2Z-1" vertex="1">
          <mxGeometry x="1010" y="495.07" width="63.5" height="30" as="geometry" />
        </mxCell>
        <mxCell id="yN5xq2XGs1i5apmsiF2Z-135" style="rounded=0;orthogonalLoop=1;jettySize=auto;html=1;entryX=0.546;entryY=0.98;entryDx=0;entryDy=0;entryPerimeter=0;endArrow=none;endFill=0;" parent="yN5xq2XGs1i5apmsiF2Z-1" source="yN5xq2XGs1i5apmsiF2Z-134" target="yN5xq2XGs1i5apmsiF2Z-21" edge="1">
          <mxGeometry relative="1" as="geometry" />
        </mxCell>
        <mxCell id="yN5xq2XGs1i5apmsiF2Z-138" style="edgeStyle=none;rounded=0;orthogonalLoop=1;jettySize=auto;html=1;entryX=0;entryY=0;entryDx=0;entryDy=0;endArrow=none;endFill=0;" parent="yN5xq2XGs1i5apmsiF2Z-1" source="yN5xq2XGs1i5apmsiF2Z-139" target="yN5xq2XGs1i5apmsiF2Z-17" edge="1">
          <mxGeometry relative="1" as="geometry" />
        </mxCell>
        <mxCell id="yN5xq2XGs1i5apmsiF2Z-139" value="Admin_id" style="ellipse;whiteSpace=wrap;html=1;align=center;fontStyle=4" parent="yN5xq2XGs1i5apmsiF2Z-1" vertex="1">
          <mxGeometry x="120" y="330" width="65" height="30" as="geometry" />
        </mxCell>
        <mxCell id="yN5xq2XGs1i5apmsiF2Z-140" style="edgeStyle=none;rounded=0;orthogonalLoop=1;jettySize=auto;html=1;entryX=0.25;entryY=1;entryDx=0;entryDy=0;endArrow=none;endFill=0;" parent="yN5xq2XGs1i5apmsiF2Z-1" source="yN5xq2XGs1i5apmsiF2Z-141" target="yN5xq2XGs1i5apmsiF2Z-18" edge="1">
          <mxGeometry relative="1" as="geometry" />
        </mxCell>
        <mxCell id="yN5xq2XGs1i5apmsiF2Z-141" value="Dean_id" style="ellipse;whiteSpace=wrap;html=1;align=center;fontStyle=4" parent="yN5xq2XGs1i5apmsiF2Z-1" vertex="1">
          <mxGeometry x="540" y="455" width="65" height="30" as="geometry" />
        </mxCell>
        <mxCell id="yN5xq2XGs1i5apmsiF2Z-142" style="edgeStyle=none;rounded=0;orthogonalLoop=1;jettySize=auto;html=1;endArrow=none;endFill=0;" parent="yN5xq2XGs1i5apmsiF2Z-1" source="yN5xq2XGs1i5apmsiF2Z-143" edge="1">
          <mxGeometry relative="1" as="geometry">
            <mxPoint x="-809" y="422.65" as="targetPoint" />
          </mxGeometry>
        </mxCell>
        <mxCell id="yN5xq2XGs1i5apmsiF2Z-143" value="Techoff_id" style="ellipse;whiteSpace=wrap;html=1;align=center;fontStyle=4" parent="yN5xq2XGs1i5apmsiF2Z-1" vertex="1">
          <mxGeometry x="-860" y="490.07" width="65" height="30" as="geometry" />
        </mxCell>
        <mxCell id="yN5xq2XGs1i5apmsiF2Z-144" style="edgeStyle=none;rounded=0;orthogonalLoop=1;jettySize=auto;html=1;entryX=0.393;entryY=1.006;entryDx=0;entryDy=0;endArrow=none;endFill=0;entryPerimeter=0;" parent="yN5xq2XGs1i5apmsiF2Z-1" source="yN5xq2XGs1i5apmsiF2Z-145" target="yN5xq2XGs1i5apmsiF2Z-21" edge="1">
          <mxGeometry relative="1" as="geometry" />
        </mxCell>
        <mxCell id="yN5xq2XGs1i5apmsiF2Z-145" value="Lec_id" style="ellipse;whiteSpace=wrap;html=1;align=center;fontStyle=4" parent="yN5xq2XGs1i5apmsiF2Z-1" vertex="1">
          <mxGeometry x="930" y="495.07" width="65" height="30" as="geometry" />
        </mxCell>
        <mxCell id="yN5xq2XGs1i5apmsiF2Z-146" style="edgeStyle=none;rounded=0;orthogonalLoop=1;jettySize=auto;html=1;entryX=0.22;entryY=0.69;entryDx=0;entryDy=0;entryPerimeter=0;" parent="yN5xq2XGs1i5apmsiF2Z-1" source="yN5xq2XGs1i5apmsiF2Z-147" target="yN5xq2XGs1i5apmsiF2Z-104" edge="1">
          <mxGeometry relative="1" as="geometry">
            <mxPoint x="-20" y="730" as="targetPoint" />
          </mxGeometry>
        </mxCell>
        <mxCell id="yN5xq2XGs1i5apmsiF2Z-147" value="&lt;span style=&quot;color: rgb(255, 255, 255); text-decoration-line: underline;&quot;&gt;St_id&lt;/span&gt;" style="ellipse;whiteSpace=wrap;html=1;align=center;fillColor=light-dark(#008a00, #43ba43);fontColor=#ffffff;strokeColor=#005700;" parent="yN5xq2XGs1i5apmsiF2Z-1" vertex="1">
          <mxGeometry x="-88.75" y="805.87" width="70" height="30" as="geometry" />
        </mxCell>
        <mxCell id="yN5xq2XGs1i5apmsiF2Z-148" style="edgeStyle=none;rounded=0;orthogonalLoop=1;jettySize=auto;html=1;entryX=0.284;entryY=0.769;entryDx=0;entryDy=0;entryPerimeter=0;" parent="yN5xq2XGs1i5apmsiF2Z-1" source="yN5xq2XGs1i5apmsiF2Z-149" target="yN5xq2XGs1i5apmsiF2Z-104" edge="1">
          <mxGeometry relative="1" as="geometry">
            <mxPoint x="-9.999999999999773" y="730" as="targetPoint" />
          </mxGeometry>
        </mxCell>
        <mxCell id="yN5xq2XGs1i5apmsiF2Z-149" value="&lt;u&gt;C_code&lt;/u&gt;" style="ellipse;whiteSpace=wrap;html=1;align=center;fillColor=light-dark(#008a00, #43ba43);fontColor=#ffffff;strokeColor=#005700;" parent="yN5xq2XGs1i5apmsiF2Z-1" vertex="1">
          <mxGeometry x="-41.5" y="838.37" width="70" height="30" as="geometry" />
        </mxCell>
        <mxCell id="yN5xq2XGs1i5apmsiF2Z-155" value="Dpt_name" style="ellipse;whiteSpace=wrap;html=1;align=center;fontStyle=0" parent="yN5xq2XGs1i5apmsiF2Z-1" vertex="1">
          <mxGeometry x="-132.5" y="355" width="75" height="30" as="geometry" />
        </mxCell>
        <mxCell id="yN5xq2XGs1i5apmsiF2Z-156" style="edgeStyle=none;rounded=0;orthogonalLoop=1;jettySize=auto;html=1;entryX=1;entryY=0;entryDx=0;entryDy=0;endArrow=none;endFill=0;" parent="yN5xq2XGs1i5apmsiF2Z-1" source="yN5xq2XGs1i5apmsiF2Z-155" target="yN5xq2XGs1i5apmsiF2Z-16" edge="1">
          <mxGeometry relative="1" as="geometry" />
        </mxCell>
        <mxCell id="4ciwaqx_qGnWYxOkdzXC-14" value="&lt;u&gt;St_id&lt;/u&gt;" style="ellipse;whiteSpace=wrap;html=1;align=center;" parent="yN5xq2XGs1i5apmsiF2Z-1" vertex="1">
          <mxGeometry x="-414" y="370" width="70" height="30" as="geometry" />
        </mxCell>
        <mxCell id="4ciwaqx_qGnWYxOkdzXC-15" value="Name" style="ellipse;whiteSpace=wrap;html=1;align=center;" parent="yN5xq2XGs1i5apmsiF2Z-1" vertex="1">
          <mxGeometry x="-370" y="325" width="70" height="30" as="geometry" />
        </mxCell>
        <mxCell id="4ciwaqx_qGnWYxOkdzXC-16" value="Nic" style="ellipse;whiteSpace=wrap;html=1;align=center;" parent="yN5xq2XGs1i5apmsiF2Z-1" vertex="1">
          <mxGeometry x="-192" y="310" width="70" height="30" as="geometry" />
        </mxCell>
        <mxCell id="4ciwaqx_qGnWYxOkdzXC-17" value="Email" style="ellipse;whiteSpace=wrap;html=1;align=center;" parent="yN5xq2XGs1i5apmsiF2Z-1" vertex="1">
          <mxGeometry x="-282" y="300" width="70" height="30" as="geometry" />
        </mxCell>
        <mxCell id="4ciwaqx_qGnWYxOkdzXC-19" value="Phone" style="ellipse;shape=doubleEllipse;margin=3;whiteSpace=wrap;html=1;align=center;" parent="yN5xq2XGs1i5apmsiF2Z-1" vertex="1">
          <mxGeometry x="-102" y="410" width="60" height="30" as="geometry" />
        </mxCell>
        <mxCell id="4ciwaqx_qGnWYxOkdzXC-20" style="rounded=0;orthogonalLoop=1;jettySize=auto;html=1;entryX=1;entryY=0.5;entryDx=0;entryDy=0;endArrow=none;startFill=0;" parent="yN5xq2XGs1i5apmsiF2Z-1" source="4ciwaqx_qGnWYxOkdzXC-21" target="4ciwaqx_qGnWYxOkdzXC-22" edge="1">
          <mxGeometry relative="1" as="geometry" />
        </mxCell>
        <mxCell id="4ciwaqx_qGnWYxOkdzXC-21" value="Address" style="ellipse;whiteSpace=wrap;html=1;align=center;" parent="yN5xq2XGs1i5apmsiF2Z-1" vertex="1">
          <mxGeometry x="-431" y="435" width="70" height="30" as="geometry" />
        </mxCell>
        <mxCell id="4ciwaqx_qGnWYxOkdzXC-22" value="No" style="ellipse;whiteSpace=wrap;html=1;align=center;" parent="yN5xq2XGs1i5apmsiF2Z-1" vertex="1">
          <mxGeometry x="-491" y="410" width="40" height="20" as="geometry" />
        </mxCell>
        <mxCell id="4ciwaqx_qGnWYxOkdzXC-23" value="City" style="ellipse;whiteSpace=wrap;html=1;align=center;" parent="yN5xq2XGs1i5apmsiF2Z-1" vertex="1">
          <mxGeometry x="-501" y="450" width="40" height="20" as="geometry" />
        </mxCell>
        <mxCell id="4ciwaqx_qGnWYxOkdzXC-24" value="Street" style="ellipse;whiteSpace=wrap;html=1;align=center;" parent="yN5xq2XGs1i5apmsiF2Z-1" vertex="1">
          <mxGeometry x="-481" y="485" width="50" height="20" as="geometry" />
        </mxCell>
        <mxCell id="4ciwaqx_qGnWYxOkdzXC-25" style="rounded=0;orthogonalLoop=1;jettySize=auto;html=1;entryX=0.931;entryY=0.245;entryDx=0;entryDy=0;entryPerimeter=0;endArrow=none;startFill=0;" parent="yN5xq2XGs1i5apmsiF2Z-1" source="4ciwaqx_qGnWYxOkdzXC-21" target="4ciwaqx_qGnWYxOkdzXC-23" edge="1">
          <mxGeometry relative="1" as="geometry" />
        </mxCell>
        <mxCell id="4ciwaqx_qGnWYxOkdzXC-26" style="rounded=0;orthogonalLoop=1;jettySize=auto;html=1;entryX=0.947;entryY=0.33;entryDx=0;entryDy=0;entryPerimeter=0;endArrow=none;startFill=0;" parent="yN5xq2XGs1i5apmsiF2Z-1" source="4ciwaqx_qGnWYxOkdzXC-21" target="4ciwaqx_qGnWYxOkdzXC-24" edge="1">
          <mxGeometry relative="1" as="geometry" />
        </mxCell>
        <mxCell id="4ciwaqx_qGnWYxOkdzXC-31" style="edgeStyle=none;rounded=0;orthogonalLoop=1;jettySize=auto;html=1;entryX=0.949;entryY=0.747;entryDx=0;entryDy=0;entryPerimeter=0;endArrow=none;endFill=0;" parent="yN5xq2XGs1i5apmsiF2Z-1" source="yN5xq2XGs1i5apmsiF2Z-16" target="4ciwaqx_qGnWYxOkdzXC-14" edge="1">
          <mxGeometry relative="1" as="geometry" />
        </mxCell>
        <mxCell id="4ciwaqx_qGnWYxOkdzXC-34" style="edgeStyle=none;rounded=0;orthogonalLoop=1;jettySize=auto;html=1;entryX=0.232;entryY=0.902;entryDx=0;entryDy=0;entryPerimeter=0;endArrow=none;endFill=0;" parent="yN5xq2XGs1i5apmsiF2Z-1" source="yN5xq2XGs1i5apmsiF2Z-16" target="4ciwaqx_qGnWYxOkdzXC-16" edge="1">
          <mxGeometry relative="1" as="geometry" />
        </mxCell>
        <mxCell id="4ciwaqx_qGnWYxOkdzXC-35" style="edgeStyle=none;rounded=0;orthogonalLoop=1;jettySize=auto;html=1;entryX=0.038;entryY=0.587;entryDx=0;entryDy=0;entryPerimeter=0;endArrow=none;endFill=0;" parent="yN5xq2XGs1i5apmsiF2Z-1" source="yN5xq2XGs1i5apmsiF2Z-16" target="4ciwaqx_qGnWYxOkdzXC-19" edge="1">
          <mxGeometry relative="1" as="geometry" />
        </mxCell>
        <mxCell id="4ciwaqx_qGnWYxOkdzXC-42" value="Name" style="ellipse;whiteSpace=wrap;html=1;align=center;" parent="yN5xq2XGs1i5apmsiF2Z-1" vertex="1">
          <mxGeometry x="149" y="479.98" width="70" height="30" as="geometry" />
        </mxCell>
        <mxCell id="4ciwaqx_qGnWYxOkdzXC-55" style="edgeStyle=none;rounded=0;orthogonalLoop=1;jettySize=auto;html=1;entryX=1;entryY=1;entryDx=0;entryDy=0;endArrow=none;endFill=0;" parent="yN5xq2XGs1i5apmsiF2Z-1" source="4ciwaqx_qGnWYxOkdzXC-43" target="yN5xq2XGs1i5apmsiF2Z-17" edge="1">
          <mxGeometry relative="1" as="geometry">
            <mxPoint x="330" y="420.0000000000002" as="targetPoint" />
          </mxGeometry>
        </mxCell>
        <mxCell id="4ciwaqx_qGnWYxOkdzXC-43" value="Nic" style="ellipse;whiteSpace=wrap;html=1;align=center;" parent="yN5xq2XGs1i5apmsiF2Z-1" vertex="1">
          <mxGeometry x="419" y="442.5" width="70" height="30" as="geometry" />
        </mxCell>
        <mxCell id="4ciwaqx_qGnWYxOkdzXC-44" value="Email" style="ellipse;whiteSpace=wrap;html=1;align=center;" parent="yN5xq2XGs1i5apmsiF2Z-1" vertex="1">
          <mxGeometry x="226.25" y="505" width="70" height="30" as="geometry" />
        </mxCell>
        <mxCell id="4ciwaqx_qGnWYxOkdzXC-54" style="edgeStyle=none;rounded=0;orthogonalLoop=1;jettySize=auto;html=1;entryX=1;entryY=0.75;entryDx=0;entryDy=0;endArrow=none;endFill=0;" parent="yN5xq2XGs1i5apmsiF2Z-1" source="4ciwaqx_qGnWYxOkdzXC-46" target="yN5xq2XGs1i5apmsiF2Z-17" edge="1">
          <mxGeometry relative="1" as="geometry" />
        </mxCell>
        <mxCell id="4ciwaqx_qGnWYxOkdzXC-46" value="Phone" style="ellipse;whiteSpace=wrap;html=1;align=center;" parent="yN5xq2XGs1i5apmsiF2Z-1" vertex="1">
          <mxGeometry x="448.5" y="380" width="60" height="30" as="geometry" />
        </mxCell>
        <mxCell id="4ciwaqx_qGnWYxOkdzXC-47" style="rounded=0;orthogonalLoop=1;jettySize=auto;html=1;entryX=1;entryY=0.5;entryDx=0;entryDy=0;endArrow=none;startFill=0;" parent="yN5xq2XGs1i5apmsiF2Z-1" source="4ciwaqx_qGnWYxOkdzXC-48" target="4ciwaqx_qGnWYxOkdzXC-49" edge="1">
          <mxGeometry relative="1" as="geometry" />
        </mxCell>
        <mxCell id="4ciwaqx_qGnWYxOkdzXC-48" value="Address" style="ellipse;whiteSpace=wrap;html=1;align=center;" parent="yN5xq2XGs1i5apmsiF2Z-1" vertex="1">
          <mxGeometry x="134" y="402.5" width="70" height="30" as="geometry" />
        </mxCell>
        <mxCell id="4ciwaqx_qGnWYxOkdzXC-49" value="No" style="ellipse;whiteSpace=wrap;html=1;align=center;" parent="yN5xq2XGs1i5apmsiF2Z-1" vertex="1">
          <mxGeometry x="74" y="377.5" width="40" height="20" as="geometry" />
        </mxCell>
        <mxCell id="4ciwaqx_qGnWYxOkdzXC-50" value="City" style="ellipse;whiteSpace=wrap;html=1;align=center;" parent="yN5xq2XGs1i5apmsiF2Z-1" vertex="1">
          <mxGeometry x="64" y="417.5" width="40" height="20" as="geometry" />
        </mxCell>
        <mxCell id="4ciwaqx_qGnWYxOkdzXC-51" value="Street" style="ellipse;whiteSpace=wrap;html=1;align=center;" parent="yN5xq2XGs1i5apmsiF2Z-1" vertex="1">
          <mxGeometry x="84" y="452.5" width="50" height="20" as="geometry" />
        </mxCell>
        <mxCell id="4ciwaqx_qGnWYxOkdzXC-52" style="rounded=0;orthogonalLoop=1;jettySize=auto;html=1;entryX=0.931;entryY=0.245;entryDx=0;entryDy=0;entryPerimeter=0;endArrow=none;startFill=0;" parent="yN5xq2XGs1i5apmsiF2Z-1" source="4ciwaqx_qGnWYxOkdzXC-48" target="4ciwaqx_qGnWYxOkdzXC-50" edge="1">
          <mxGeometry relative="1" as="geometry" />
        </mxCell>
        <mxCell id="4ciwaqx_qGnWYxOkdzXC-53" style="rounded=0;orthogonalLoop=1;jettySize=auto;html=1;entryX=0.947;entryY=0.33;entryDx=0;entryDy=0;entryPerimeter=0;endArrow=none;startFill=0;" parent="yN5xq2XGs1i5apmsiF2Z-1" source="4ciwaqx_qGnWYxOkdzXC-48" target="4ciwaqx_qGnWYxOkdzXC-51" edge="1">
          <mxGeometry relative="1" as="geometry" />
        </mxCell>
        <mxCell id="4ciwaqx_qGnWYxOkdzXC-56" style="edgeStyle=none;rounded=0;orthogonalLoop=1;jettySize=auto;html=1;entryX=0.689;entryY=0.995;entryDx=0;entryDy=0;entryPerimeter=0;endArrow=none;endFill=0;" parent="yN5xq2XGs1i5apmsiF2Z-1" source="4ciwaqx_qGnWYxOkdzXC-44" target="yN5xq2XGs1i5apmsiF2Z-17" edge="1">
          <mxGeometry relative="1" as="geometry" />
        </mxCell>
        <mxCell id="4ciwaqx_qGnWYxOkdzXC-57" style="edgeStyle=none;rounded=0;orthogonalLoop=1;jettySize=auto;html=1;entryX=0.351;entryY=0.974;entryDx=0;entryDy=0;entryPerimeter=0;endArrow=none;endFill=0;" parent="yN5xq2XGs1i5apmsiF2Z-1" source="4ciwaqx_qGnWYxOkdzXC-42" target="yN5xq2XGs1i5apmsiF2Z-17" edge="1">
          <mxGeometry relative="1" as="geometry" />
        </mxCell>
        <mxCell id="4ciwaqx_qGnWYxOkdzXC-58" style="edgeStyle=none;rounded=0;orthogonalLoop=1;jettySize=auto;html=1;entryX=-0.001;entryY=0.91;entryDx=0;entryDy=0;entryPerimeter=0;endArrow=none;endFill=0;" parent="yN5xq2XGs1i5apmsiF2Z-1" source="4ciwaqx_qGnWYxOkdzXC-48" target="yN5xq2XGs1i5apmsiF2Z-17" edge="1">
          <mxGeometry relative="1" as="geometry" />
        </mxCell>
        <mxCell id="4ciwaqx_qGnWYxOkdzXC-60" style="edgeStyle=none;rounded=0;orthogonalLoop=1;jettySize=auto;html=1;entryX=1;entryY=0;entryDx=0;entryDy=0;endArrow=none;endFill=0;" parent="yN5xq2XGs1i5apmsiF2Z-1" source="4ciwaqx_qGnWYxOkdzXC-59" target="yN5xq2XGs1i5apmsiF2Z-17" edge="1">
          <mxGeometry relative="1" as="geometry" />
        </mxCell>
        <mxCell id="4ciwaqx_qGnWYxOkdzXC-59" value="Dpt_name" style="ellipse;whiteSpace=wrap;html=1;align=center;fontStyle=0" parent="yN5xq2XGs1i5apmsiF2Z-1" vertex="1">
          <mxGeometry x="405" y="330" width="75" height="30" as="geometry" />
        </mxCell>
        <mxCell id="8ko9bemNTCcN91BI28nj-1" value="Name" style="ellipse;whiteSpace=wrap;html=1;align=center;" parent="yN5xq2XGs1i5apmsiF2Z-1" vertex="1">
          <mxGeometry x="672.5" y="310" width="70" height="30" as="geometry" />
        </mxCell>
        <mxCell id="8ko9bemNTCcN91BI28nj-2" value="Nic" style="ellipse;whiteSpace=wrap;html=1;align=center;" parent="yN5xq2XGs1i5apmsiF2Z-1" vertex="1">
          <mxGeometry x="780" y="391.38" width="70" height="30" as="geometry" />
        </mxCell>
        <mxCell id="8ko9bemNTCcN91BI28nj-3" value="Email" style="ellipse;whiteSpace=wrap;html=1;align=center;" parent="yN5xq2XGs1i5apmsiF2Z-1" vertex="1">
          <mxGeometry x="757" y="340" width="70" height="30" as="geometry" />
        </mxCell>
        <mxCell id="8ko9bemNTCcN91BI28nj-5" style="rounded=0;orthogonalLoop=1;jettySize=auto;html=1;entryX=0.546;entryY=0.005;entryDx=0;entryDy=0;endArrow=none;startFill=0;entryPerimeter=0;" parent="yN5xq2XGs1i5apmsiF2Z-1" source="8ko9bemNTCcN91BI28nj-6" target="8ko9bemNTCcN91BI28nj-7" edge="1">
          <mxGeometry relative="1" as="geometry" />
        </mxCell>
        <mxCell id="8ko9bemNTCcN91BI28nj-6" value="Address" style="ellipse;whiteSpace=wrap;html=1;align=center;" parent="yN5xq2XGs1i5apmsiF2Z-1" vertex="1">
          <mxGeometry x="637.5" y="460.07" width="70" height="30" as="geometry" />
        </mxCell>
        <mxCell id="8ko9bemNTCcN91BI28nj-7" value="No" style="ellipse;whiteSpace=wrap;html=1;align=center;" parent="yN5xq2XGs1i5apmsiF2Z-1" vertex="1">
          <mxGeometry x="607.5" y="513.45" width="40" height="20" as="geometry" />
        </mxCell>
        <mxCell id="8ko9bemNTCcN91BI28nj-8" value="City" style="ellipse;whiteSpace=wrap;html=1;align=center;" parent="yN5xq2XGs1i5apmsiF2Z-1" vertex="1">
          <mxGeometry x="660" y="516.69" width="40" height="20" as="geometry" />
        </mxCell>
        <mxCell id="8ko9bemNTCcN91BI28nj-9" value="Street" style="ellipse;whiteSpace=wrap;html=1;align=center;" parent="yN5xq2XGs1i5apmsiF2Z-1" vertex="1">
          <mxGeometry x="700" y="505.07" width="50" height="20" as="geometry" />
        </mxCell>
        <mxCell id="8ko9bemNTCcN91BI28nj-10" style="rounded=0;orthogonalLoop=1;jettySize=auto;html=1;entryX=0.531;entryY=-0.007;entryDx=0;entryDy=0;entryPerimeter=0;endArrow=none;startFill=0;" parent="yN5xq2XGs1i5apmsiF2Z-1" source="8ko9bemNTCcN91BI28nj-6" target="8ko9bemNTCcN91BI28nj-8" edge="1">
          <mxGeometry relative="1" as="geometry" />
        </mxCell>
        <mxCell id="8ko9bemNTCcN91BI28nj-11" style="rounded=0;orthogonalLoop=1;jettySize=auto;html=1;entryX=0.5;entryY=0;entryDx=0;entryDy=0;endArrow=none;startFill=0;" parent="yN5xq2XGs1i5apmsiF2Z-1" source="8ko9bemNTCcN91BI28nj-6" target="8ko9bemNTCcN91BI28nj-9" edge="1">
          <mxGeometry relative="1" as="geometry" />
        </mxCell>
        <mxCell id="8ko9bemNTCcN91BI28nj-12" value="Phone" style="ellipse;whiteSpace=wrap;html=1;align=center;" parent="yN5xq2XGs1i5apmsiF2Z-1" vertex="1">
          <mxGeometry x="740" y="444.99999999999994" width="70" height="30" as="geometry" />
        </mxCell>
        <mxCell id="8ko9bemNTCcN91BI28nj-13" style="edgeStyle=orthogonalEdgeStyle;rounded=0;orthogonalLoop=1;jettySize=auto;html=1;exitX=0.5;exitY=1;exitDx=0;exitDy=0;" parent="yN5xq2XGs1i5apmsiF2Z-1" source="8ko9bemNTCcN91BI28nj-2" target="8ko9bemNTCcN91BI28nj-2" edge="1">
          <mxGeometry relative="1" as="geometry" />
        </mxCell>
        <mxCell id="8ko9bemNTCcN91BI28nj-17" style="edgeStyle=none;rounded=0;orthogonalLoop=1;jettySize=auto;html=1;entryX=0;entryY=0;entryDx=0;entryDy=0;endArrow=none;endFill=0;" parent="yN5xq2XGs1i5apmsiF2Z-1" source="yN5xq2XGs1i5apmsiF2Z-18" target="8ko9bemNTCcN91BI28nj-12" edge="1">
          <mxGeometry relative="1" as="geometry" />
        </mxCell>
        <mxCell id="8ko9bemNTCcN91BI28nj-19" style="edgeStyle=none;rounded=0;orthogonalLoop=1;jettySize=auto;html=1;entryX=0.363;entryY=1.016;entryDx=0;entryDy=0;entryPerimeter=0;endArrow=none;endFill=0;" parent="yN5xq2XGs1i5apmsiF2Z-1" source="yN5xq2XGs1i5apmsiF2Z-18" target="8ko9bemNTCcN91BI28nj-1" edge="1">
          <mxGeometry relative="1" as="geometry" />
        </mxCell>
        <mxCell id="8ko9bemNTCcN91BI28nj-20" style="edgeStyle=none;rounded=0;orthogonalLoop=1;jettySize=auto;html=1;entryX=0.021;entryY=0.62;entryDx=0;entryDy=0;entryPerimeter=0;endArrow=none;endFill=0;" parent="yN5xq2XGs1i5apmsiF2Z-1" source="yN5xq2XGs1i5apmsiF2Z-18" target="8ko9bemNTCcN91BI28nj-3" edge="1">
          <mxGeometry relative="1" as="geometry" />
        </mxCell>
        <mxCell id="WR_YPqAhxAqgRl3yz3Iu-1" style="edgeStyle=none;rounded=0;orthogonalLoop=1;jettySize=auto;html=1;entryX=0.996;entryY=0.066;entryDx=0;entryDy=0;endArrow=none;endFill=0;entryPerimeter=0;" parent="yN5xq2XGs1i5apmsiF2Z-1" source="8ko9bemNTCcN91BI28nj-21" target="yN5xq2XGs1i5apmsiF2Z-21" edge="1">
          <mxGeometry relative="1" as="geometry" />
        </mxCell>
        <mxCell id="8ko9bemNTCcN91BI28nj-21" value="Name" style="ellipse;whiteSpace=wrap;html=1;align=center;" parent="yN5xq2XGs1i5apmsiF2Z-1" vertex="1">
          <mxGeometry x="1110" y="330" width="70" height="30" as="geometry" />
        </mxCell>
        <mxCell id="8ko9bemNTCcN91BI28nj-22" value="Nic" style="ellipse;whiteSpace=wrap;html=1;align=center;" parent="yN5xq2XGs1i5apmsiF2Z-1" vertex="1">
          <mxGeometry x="1090" y="494.06" width="40" height="22.02" as="geometry" />
        </mxCell>
        <mxCell id="WR_YPqAhxAqgRl3yz3Iu-2" style="edgeStyle=none;rounded=0;orthogonalLoop=1;jettySize=auto;html=1;entryX=0.999;entryY=0.322;entryDx=0;entryDy=0;endArrow=none;endFill=0;entryPerimeter=0;" parent="yN5xq2XGs1i5apmsiF2Z-1" source="8ko9bemNTCcN91BI28nj-23" target="yN5xq2XGs1i5apmsiF2Z-21" edge="1">
          <mxGeometry relative="1" as="geometry" />
        </mxCell>
        <mxCell id="8ko9bemNTCcN91BI28nj-23" value="Email" style="ellipse;whiteSpace=wrap;html=1;align=center;" parent="yN5xq2XGs1i5apmsiF2Z-1" vertex="1">
          <mxGeometry x="1190" y="370" width="70" height="30" as="geometry" />
        </mxCell>
        <mxCell id="8ko9bemNTCcN91BI28nj-24" value="Phone" style="ellipse;shape=doubleEllipse;margin=3;whiteSpace=wrap;html=1;align=center;" parent="yN5xq2XGs1i5apmsiF2Z-1" vertex="1">
          <mxGeometry x="1200" y="422.98" width="60" height="30" as="geometry" />
        </mxCell>
        <mxCell id="8ko9bemNTCcN91BI28nj-25" style="rounded=0;orthogonalLoop=1;jettySize=auto;html=1;entryX=0.429;entryY=0.986;entryDx=0;entryDy=0;endArrow=none;startFill=0;entryPerimeter=0;" parent="yN5xq2XGs1i5apmsiF2Z-1" source="8ko9bemNTCcN91BI28nj-26" target="8ko9bemNTCcN91BI28nj-27" edge="1">
          <mxGeometry relative="1" as="geometry">
            <mxPoint x="1079.9999999999998" y="264.84000000000015" as="targetPoint" />
          </mxGeometry>
        </mxCell>
        <mxCell id="8ko9bemNTCcN91BI28nj-26" value="Address" style="ellipse;whiteSpace=wrap;html=1;align=center;" parent="yN5xq2XGs1i5apmsiF2Z-1" vertex="1">
          <mxGeometry x="1008.34" y="320" width="70" height="30" as="geometry" />
        </mxCell>
        <mxCell id="8ko9bemNTCcN91BI28nj-27" value="No" style="ellipse;whiteSpace=wrap;html=1;align=center;" parent="yN5xq2XGs1i5apmsiF2Z-1" vertex="1">
          <mxGeometry x="1060" y="250" width="40" height="20" as="geometry" />
        </mxCell>
        <mxCell id="8ko9bemNTCcN91BI28nj-28" value="City" style="ellipse;whiteSpace=wrap;html=1;align=center;" parent="yN5xq2XGs1i5apmsiF2Z-1" vertex="1">
          <mxGeometry x="999.84" y="245" width="40" height="20" as="geometry" />
        </mxCell>
        <mxCell id="8ko9bemNTCcN91BI28nj-29" value="Street" style="ellipse;whiteSpace=wrap;html=1;align=center;" parent="yN5xq2XGs1i5apmsiF2Z-1" vertex="1">
          <mxGeometry x="949.84" y="280" width="50" height="20" as="geometry" />
        </mxCell>
        <mxCell id="8ko9bemNTCcN91BI28nj-30" style="rounded=0;orthogonalLoop=1;jettySize=auto;html=1;entryX=0.545;entryY=1.001;entryDx=0;entryDy=0;entryPerimeter=0;endArrow=none;startFill=0;" parent="yN5xq2XGs1i5apmsiF2Z-1" source="8ko9bemNTCcN91BI28nj-26" target="8ko9bemNTCcN91BI28nj-28" edge="1">
          <mxGeometry relative="1" as="geometry" />
        </mxCell>
        <mxCell id="8ko9bemNTCcN91BI28nj-31" style="rounded=0;orthogonalLoop=1;jettySize=auto;html=1;entryX=0.807;entryY=0.909;entryDx=0;entryDy=0;entryPerimeter=0;endArrow=none;startFill=0;" parent="yN5xq2XGs1i5apmsiF2Z-1" source="8ko9bemNTCcN91BI28nj-26" target="8ko9bemNTCcN91BI28nj-29" edge="1">
          <mxGeometry relative="1" as="geometry" />
        </mxCell>
        <mxCell id="WR_YPqAhxAqgRl3yz3Iu-0" style="edgeStyle=none;rounded=0;orthogonalLoop=1;jettySize=auto;html=1;entryX=0.899;entryY=0.008;entryDx=0;entryDy=0;entryPerimeter=0;endArrow=none;endFill=0;" parent="yN5xq2XGs1i5apmsiF2Z-1" source="8ko9bemNTCcN91BI28nj-26" target="yN5xq2XGs1i5apmsiF2Z-21" edge="1">
          <mxGeometry relative="1" as="geometry" />
        </mxCell>
        <mxCell id="WR_YPqAhxAqgRl3yz3Iu-3" style="edgeStyle=none;rounded=0;orthogonalLoop=1;jettySize=auto;html=1;entryX=0.998;entryY=0.581;entryDx=0;entryDy=0;entryPerimeter=0;endArrow=none;endFill=0;" parent="yN5xq2XGs1i5apmsiF2Z-1" source="8ko9bemNTCcN91BI28nj-24" target="yN5xq2XGs1i5apmsiF2Z-21" edge="1">
          <mxGeometry relative="1" as="geometry" />
        </mxCell>
        <mxCell id="WR_YPqAhxAqgRl3yz3Iu-4" style="edgeStyle=none;rounded=0;orthogonalLoop=1;jettySize=auto;html=1;entryX=0.779;entryY=0.998;entryDx=0;entryDy=0;entryPerimeter=0;endArrow=none;endFill=0;" parent="yN5xq2XGs1i5apmsiF2Z-1" source="8ko9bemNTCcN91BI28nj-22" target="yN5xq2XGs1i5apmsiF2Z-21" edge="1">
          <mxGeometry relative="1" as="geometry" />
        </mxCell>
        <mxCell id="WR_YPqAhxAqgRl3yz3Iu-5" value="Name" style="ellipse;whiteSpace=wrap;html=1;align=center;" parent="yN5xq2XGs1i5apmsiF2Z-1" vertex="1">
          <mxGeometry x="-1010" y="370" width="70" height="30" as="geometry" />
        </mxCell>
        <mxCell id="WR_YPqAhxAqgRl3yz3Iu-6" value="Nic" style="ellipse;whiteSpace=wrap;html=1;align=center;" parent="yN5xq2XGs1i5apmsiF2Z-1" vertex="1">
          <mxGeometry x="-841.5" y="290" width="70" height="30" as="geometry" />
        </mxCell>
        <mxCell id="WR_YPqAhxAqgRl3yz3Iu-7" value="Email" style="ellipse;whiteSpace=wrap;html=1;align=center;" parent="yN5xq2XGs1i5apmsiF2Z-1" vertex="1">
          <mxGeometry x="-940" y="310" width="70" height="30" as="geometry" />
        </mxCell>
        <mxCell id="WR_YPqAhxAqgRl3yz3Iu-8" value="Phone" style="ellipse;shape=doubleEllipse;margin=3;whiteSpace=wrap;html=1;align=center;" parent="yN5xq2XGs1i5apmsiF2Z-1" vertex="1">
          <mxGeometry x="-750" y="320" width="60" height="30" as="geometry" />
        </mxCell>
        <mxCell id="WR_YPqAhxAqgRl3yz3Iu-9" style="rounded=0;orthogonalLoop=1;jettySize=auto;html=1;entryX=1;entryY=0.5;entryDx=0;entryDy=0;endArrow=none;startFill=0;" parent="yN5xq2XGs1i5apmsiF2Z-1" source="WR_YPqAhxAqgRl3yz3Iu-10" target="WR_YPqAhxAqgRl3yz3Iu-11" edge="1">
          <mxGeometry relative="1" as="geometry" />
        </mxCell>
        <mxCell id="_ijcyBmvrw7XsCVb8ka2-4" style="edgeStyle=none;rounded=0;orthogonalLoop=1;jettySize=auto;html=1;entryX=0;entryY=1;entryDx=0;entryDy=0;endArrow=none;endFill=0;" parent="yN5xq2XGs1i5apmsiF2Z-1" source="WR_YPqAhxAqgRl3yz3Iu-10" target="yN5xq2XGs1i5apmsiF2Z-22" edge="1">
          <mxGeometry relative="1" as="geometry" />
        </mxCell>
        <mxCell id="WR_YPqAhxAqgRl3yz3Iu-10" value="Address" style="ellipse;whiteSpace=wrap;html=1;align=center;" parent="yN5xq2XGs1i5apmsiF2Z-1" vertex="1">
          <mxGeometry x="-960" y="481.62" width="70" height="30" as="geometry" />
        </mxCell>
        <mxCell id="WR_YPqAhxAqgRl3yz3Iu-11" value="No" style="ellipse;whiteSpace=wrap;html=1;align=center;" parent="yN5xq2XGs1i5apmsiF2Z-1" vertex="1">
          <mxGeometry x="-1020" y="456.62" width="40" height="20" as="geometry" />
        </mxCell>
        <mxCell id="WR_YPqAhxAqgRl3yz3Iu-12" value="City" style="ellipse;whiteSpace=wrap;html=1;align=center;" parent="yN5xq2XGs1i5apmsiF2Z-1" vertex="1">
          <mxGeometry x="-1030" y="496.62" width="40" height="20" as="geometry" />
        </mxCell>
        <mxCell id="WR_YPqAhxAqgRl3yz3Iu-13" value="Street" style="ellipse;whiteSpace=wrap;html=1;align=center;" parent="yN5xq2XGs1i5apmsiF2Z-1" vertex="1">
          <mxGeometry x="-1010" y="531.62" width="50" height="20" as="geometry" />
        </mxCell>
        <mxCell id="WR_YPqAhxAqgRl3yz3Iu-14" style="rounded=0;orthogonalLoop=1;jettySize=auto;html=1;entryX=0.931;entryY=0.245;entryDx=0;entryDy=0;entryPerimeter=0;endArrow=none;startFill=0;" parent="yN5xq2XGs1i5apmsiF2Z-1" source="WR_YPqAhxAqgRl3yz3Iu-10" target="WR_YPqAhxAqgRl3yz3Iu-12" edge="1">
          <mxGeometry relative="1" as="geometry" />
        </mxCell>
        <mxCell id="WR_YPqAhxAqgRl3yz3Iu-15" style="rounded=0;orthogonalLoop=1;jettySize=auto;html=1;entryX=0.947;entryY=0.33;entryDx=0;entryDy=0;entryPerimeter=0;endArrow=none;startFill=0;" parent="yN5xq2XGs1i5apmsiF2Z-1" target="WR_YPqAhxAqgRl3yz3Iu-13" edge="1">
          <mxGeometry relative="1" as="geometry">
            <mxPoint x="-937" y="510.62" as="sourcePoint" />
          </mxGeometry>
        </mxCell>
        <mxCell id="_ijcyBmvrw7XsCVb8ka2-0" style="edgeStyle=none;rounded=0;orthogonalLoop=1;jettySize=auto;html=1;entryX=0;entryY=0.5;entryDx=0;entryDy=0;endArrow=none;endFill=0;" parent="yN5xq2XGs1i5apmsiF2Z-1" source="WR_YPqAhxAqgRl3yz3Iu-5" target="yN5xq2XGs1i5apmsiF2Z-22" edge="1">
          <mxGeometry relative="1" as="geometry" />
        </mxCell>
        <mxCell id="_ijcyBmvrw7XsCVb8ka2-1" style="edgeStyle=none;rounded=0;orthogonalLoop=1;jettySize=auto;html=1;entryX=0.061;entryY=-0.009;entryDx=0;entryDy=0;entryPerimeter=0;endArrow=none;endFill=0;" parent="yN5xq2XGs1i5apmsiF2Z-1" source="WR_YPqAhxAqgRl3yz3Iu-7" target="yN5xq2XGs1i5apmsiF2Z-22" edge="1">
          <mxGeometry relative="1" as="geometry" />
        </mxCell>
        <mxCell id="_ijcyBmvrw7XsCVb8ka2-2" style="edgeStyle=none;rounded=0;orthogonalLoop=1;jettySize=auto;html=1;entryX=0.382;entryY=-0.017;entryDx=0;entryDy=0;entryPerimeter=0;endArrow=none;endFill=0;" parent="yN5xq2XGs1i5apmsiF2Z-1" source="WR_YPqAhxAqgRl3yz3Iu-6" target="yN5xq2XGs1i5apmsiF2Z-22" edge="1">
          <mxGeometry relative="1" as="geometry" />
        </mxCell>
        <mxCell id="_ijcyBmvrw7XsCVb8ka2-3" style="edgeStyle=none;rounded=0;orthogonalLoop=1;jettySize=auto;html=1;entryX=0.628;entryY=-0.001;entryDx=0;entryDy=0;entryPerimeter=0;endArrow=none;endFill=0;" parent="yN5xq2XGs1i5apmsiF2Z-1" source="WR_YPqAhxAqgRl3yz3Iu-8" target="yN5xq2XGs1i5apmsiF2Z-22" edge="1">
          <mxGeometry relative="1" as="geometry" />
        </mxCell>
        <mxCell id="_ijcyBmvrw7XsCVb8ka2-7" value="Dob" style="ellipse;whiteSpace=wrap;html=1;align=center;" parent="yN5xq2XGs1i5apmsiF2Z-1" vertex="1">
          <mxGeometry x="-755" y="479.98" width="70" height="30" as="geometry" />
        </mxCell>
        <mxCell id="_ijcyBmvrw7XsCVb8ka2-8" style="edgeStyle=none;rounded=0;orthogonalLoop=1;jettySize=auto;html=1;entryX=0.705;entryY=1.058;entryDx=0;entryDy=0;entryPerimeter=0;endArrow=none;endFill=0;" parent="yN5xq2XGs1i5apmsiF2Z-1" source="_ijcyBmvrw7XsCVb8ka2-7" target="yN5xq2XGs1i5apmsiF2Z-22" edge="1">
          <mxGeometry relative="1" as="geometry" />
        </mxCell>
        <mxCell id="_ijcyBmvrw7XsCVb8ka2-10" style="edgeStyle=none;rounded=0;orthogonalLoop=1;jettySize=auto;html=1;entryX=1;entryY=0.75;entryDx=0;entryDy=0;endArrow=none;endFill=0;" parent="yN5xq2XGs1i5apmsiF2Z-1" source="_ijcyBmvrw7XsCVb8ka2-9" target="yN5xq2XGs1i5apmsiF2Z-16" edge="1">
          <mxGeometry relative="1" as="geometry" />
        </mxCell>
        <mxCell id="_ijcyBmvrw7XsCVb8ka2-9" value="Dob" style="ellipse;whiteSpace=wrap;html=1;align=center;fontStyle=0" parent="yN5xq2XGs1i5apmsiF2Z-1" vertex="1">
          <mxGeometry x="-117" y="479.98" width="75" height="30" as="geometry" />
        </mxCell>
        <mxCell id="_ijcyBmvrw7XsCVb8ka2-12" style="edgeStyle=none;rounded=0;orthogonalLoop=1;jettySize=auto;html=1;entryX=0.868;entryY=1;entryDx=0;entryDy=0;entryPerimeter=0;endArrow=none;endFill=0;" parent="yN5xq2XGs1i5apmsiF2Z-1" source="_ijcyBmvrw7XsCVb8ka2-11" target="yN5xq2XGs1i5apmsiF2Z-17" edge="1">
          <mxGeometry relative="1" as="geometry">
            <mxPoint x="320" y="420" as="targetPoint" />
          </mxGeometry>
        </mxCell>
        <mxCell id="_ijcyBmvrw7XsCVb8ka2-11" value="Dob" style="ellipse;whiteSpace=wrap;html=1;align=center;fontStyle=0" parent="yN5xq2XGs1i5apmsiF2Z-1" vertex="1">
          <mxGeometry x="330.5" y="506.69" width="75" height="30" as="geometry" />
        </mxCell>
        <mxCell id="_ijcyBmvrw7XsCVb8ka2-14" style="edgeStyle=none;rounded=0;orthogonalLoop=1;jettySize=auto;html=1;endArrow=none;endFill=0;" parent="yN5xq2XGs1i5apmsiF2Z-1" source="_ijcyBmvrw7XsCVb8ka2-13" target="yN5xq2XGs1i5apmsiF2Z-18" edge="1">
          <mxGeometry relative="1" as="geometry" />
        </mxCell>
        <mxCell id="_ijcyBmvrw7XsCVb8ka2-13" value="Dob" style="ellipse;whiteSpace=wrap;html=1;align=center;fontStyle=0" parent="yN5xq2XGs1i5apmsiF2Z-1" vertex="1">
          <mxGeometry x="585" y="270.00000000000006" width="75" height="30" as="geometry" />
        </mxCell>
        <mxCell id="_ijcyBmvrw7XsCVb8ka2-16" style="edgeStyle=none;rounded=0;orthogonalLoop=1;jettySize=auto;html=1;entryX=0.997;entryY=0.984;entryDx=0;entryDy=0;endArrow=none;endFill=0;entryPerimeter=0;" parent="yN5xq2XGs1i5apmsiF2Z-1" source="_ijcyBmvrw7XsCVb8ka2-15" target="yN5xq2XGs1i5apmsiF2Z-21" edge="1">
          <mxGeometry relative="1" as="geometry" />
        </mxCell>
        <mxCell id="_ijcyBmvrw7XsCVb8ka2-15" value="Education_lvl" style="ellipse;whiteSpace=wrap;html=1;align=center;" parent="yN5xq2XGs1i5apmsiF2Z-1" vertex="1">
          <mxGeometry x="1140" y="466.62" width="90" height="30" as="geometry" />
        </mxCell>
        <mxCell id="wXOPK4AChqKwj1lSAxt4-2" value="&lt;span style=&quot;text-decoration-line: underline;&quot;&gt;&lt;font style=&quot;color: rgb(18, 18, 18);&quot;&gt;St_id&lt;/font&gt;&lt;/span&gt;" style="ellipse;whiteSpace=wrap;html=1;align=center;fillColor=#60a917;fontColor=#ffffff;strokeColor=#2D7600;" parent="yN5xq2XGs1i5apmsiF2Z-1" vertex="1">
          <mxGeometry x="-359.13" y="662.5" width="49.5" height="30" as="geometry" />
        </mxCell>
        <mxCell id="bnyU4fmkfsagM3f5U1Mi-1" style="rounded=0;orthogonalLoop=1;jettySize=auto;html=1;entryX=0.5;entryY=1;entryDx=0;entryDy=0;endArrow=none;endFill=0;" parent="yN5xq2XGs1i5apmsiF2Z-1" source="bnyU4fmkfsagM3f5U1Mi-0" target="yN5xq2XGs1i5apmsiF2Z-104" edge="1">
          <mxGeometry relative="1" as="geometry" />
        </mxCell>
        <mxCell id="bnyU4fmkfsagM3f5U1Mi-0" value="Level" style="ellipse;whiteSpace=wrap;html=1;align=center;" parent="yN5xq2XGs1i5apmsiF2Z-1" vertex="1">
          <mxGeometry x="18.5" y="812.12" width="70" height="32.5" as="geometry" />
        </mxCell>
        <mxCell id="JDxqKdpxFpa2FneoR6ap-0" value="Status&lt;br&gt;Practical?theory/Medical" style="ellipse;whiteSpace=wrap;html=1;align=center;" parent="yN5xq2XGs1i5apmsiF2Z-1" vertex="1">
          <mxGeometry x="-758" y="1180.69" width="110" height="60" as="geometry" />
        </mxCell>
        <mxCell id="JDxqKdpxFpa2FneoR6ap-1" style="rounded=0;orthogonalLoop=1;jettySize=auto;html=1;entryX=0.608;entryY=1.02;entryDx=0;entryDy=0;entryPerimeter=0;endArrow=none;endFill=0;" parent="yN5xq2XGs1i5apmsiF2Z-1" source="JDxqKdpxFpa2FneoR6ap-0" target="yN5xq2XGs1i5apmsiF2Z-86" edge="1">
          <mxGeometry relative="1" as="geometry" />
        </mxCell>
        <mxCell id="Z6VpLTgS0yps-9utHtI7-0" value="" style="edgeStyle=none;rounded=0;orthogonalLoop=1;jettySize=auto;html=1;exitX=1.014;exitY=0.595;exitDx=0;exitDy=0;exitPerimeter=0;" parent="yN5xq2XGs1i5apmsiF2Z-1" source="yN5xq2XGs1i5apmsiF2Z-50" target="yN5xq2XGs1i5apmsiF2Z-154" edge="1">
          <mxGeometry relative="1" as="geometry">
            <mxPoint x="349" y="1092.11" as="targetPoint" />
            <mxPoint x="275" y="1051.11" as="sourcePoint" />
          </mxGeometry>
        </mxCell>
        <mxCell id="yN5xq2XGs1i5apmsiF2Z-154" value="Lec_id" style="ellipse;whiteSpace=wrap;html=1;align=center;fillColor=#008a00;fontColor=#ffffff;strokeColor=#005700;" parent="yN5xq2XGs1i5apmsiF2Z-1" vertex="1">
          <mxGeometry x="379" y="1102.11" width="86" height="40" as="geometry" />
        </mxCell>
        <mxCell id="JE2W_Q6_ty0hoF7SW9lV-0" value="SESSION" style="shape=ext;margin=3;double=1;whiteSpace=wrap;html=1;align=center;" parent="yN5xq2XGs1i5apmsiF2Z-1" vertex="1">
          <mxGeometry x="-330.97" y="1140.6900000000003" width="100" height="40" as="geometry" />
        </mxCell>
        <mxCell id="JE2W_Q6_ty0hoF7SW9lV-1" style="edgeStyle=none;rounded=0;orthogonalLoop=1;jettySize=auto;html=1;endArrow=none;startFill=0;" parent="yN5xq2XGs1i5apmsiF2Z-1" source="JE2W_Q6_ty0hoF7SW9lV-2" target="JE2W_Q6_ty0hoF7SW9lV-0" edge="1">
          <mxGeometry relative="1" as="geometry" />
        </mxCell>
        <mxCell id="JE2W_Q6_ty0hoF7SW9lV-2" value="&lt;u&gt;Session_id&lt;/u&gt;" style="ellipse;whiteSpace=wrap;html=1;align=center;" parent="yN5xq2XGs1i5apmsiF2Z-1" vertex="1">
          <mxGeometry x="-404.97" y="1085.6900000000003" width="90" height="30" as="geometry" />
        </mxCell>
        <mxCell id="JE2W_Q6_ty0hoF7SW9lV-3" style="edgeStyle=none;rounded=0;orthogonalLoop=1;jettySize=auto;html=1;entryX=0.25;entryY=1;entryDx=0;entryDy=0;endArrow=none;startFill=0;" parent="yN5xq2XGs1i5apmsiF2Z-1" source="JE2W_Q6_ty0hoF7SW9lV-4" target="JE2W_Q6_ty0hoF7SW9lV-0" edge="1">
          <mxGeometry relative="1" as="geometry" />
        </mxCell>
        <mxCell id="JE2W_Q6_ty0hoF7SW9lV-4" value="C_code" style="ellipse;whiteSpace=wrap;html=1;align=center;fillColor=#008a00;fontColor=#ffffff;strokeColor=#005700;" parent="yN5xq2XGs1i5apmsiF2Z-1" vertex="1">
          <mxGeometry x="-405.97" y="1210.6900000000003" width="60" height="30" as="geometry" />
        </mxCell>
        <mxCell id="JE2W_Q6_ty0hoF7SW9lV-7" style="edgeStyle=none;rounded=0;orthogonalLoop=1;jettySize=auto;html=1;endArrow=none;startFill=0;" parent="yN5xq2XGs1i5apmsiF2Z-1" source="JE2W_Q6_ty0hoF7SW9lV-8" target="JE2W_Q6_ty0hoF7SW9lV-0" edge="1">
          <mxGeometry relative="1" as="geometry" />
        </mxCell>
        <mxCell id="JE2W_Q6_ty0hoF7SW9lV-8" value="Type&amp;nbsp;&lt;br&gt;&lt;font style=&quot;font-size: 8px;&quot;&gt;(P/T)&lt;/font&gt;" style="ellipse;whiteSpace=wrap;html=1;align=center;" parent="yN5xq2XGs1i5apmsiF2Z-1" vertex="1">
          <mxGeometry x="-174.5" y="1150.6900000000003" width="60" height="40" as="geometry" />
        </mxCell>
        <mxCell id="JE2W_Q6_ty0hoF7SW9lV-13" style="edgeStyle=none;rounded=0;orthogonalLoop=1;jettySize=auto;html=1;endArrow=none;endFill=0;" parent="yN5xq2XGs1i5apmsiF2Z-1" source="JE2W_Q6_ty0hoF7SW9lV-12" edge="1">
          <mxGeometry relative="1" as="geometry">
            <mxPoint x="189" y="1031" as="targetPoint" />
          </mxGeometry>
        </mxCell>
        <mxCell id="ek2N7RcGhcBZ1Ensz346-29" value="M" style="edgeLabel;html=1;align=center;verticalAlign=middle;resizable=0;points=[];" parent="JE2W_Q6_ty0hoF7SW9lV-13" vertex="1" connectable="0">
          <mxGeometry x="0.7948" y="1" relative="1" as="geometry">
            <mxPoint as="offset" />
          </mxGeometry>
        </mxCell>
        <mxCell id="JE2W_Q6_ty0hoF7SW9lV-12" value="HAS" style="shape=rhombus;double=1;perimeter=rhombusPerimeter;whiteSpace=wrap;html=1;align=center;" parent="yN5xq2XGs1i5apmsiF2Z-1" vertex="1">
          <mxGeometry x="-147.54" y="1000" width="81" height="51" as="geometry" />
        </mxCell>
        <mxCell id="JE2W_Q6_ty0hoF7SW9lV-14" style="edgeStyle=none;rounded=0;orthogonalLoop=1;jettySize=auto;html=1;endArrow=none;endFill=0;entryX=1;entryY=0;entryDx=0;entryDy=0;exitX=0;exitY=0.5;exitDx=0;exitDy=0;" parent="yN5xq2XGs1i5apmsiF2Z-1" source="JE2W_Q6_ty0hoF7SW9lV-12" target="JE2W_Q6_ty0hoF7SW9lV-0" edge="1">
          <mxGeometry relative="1" as="geometry">
            <mxPoint x="-36.53999999999999" y="1171" as="targetPoint" />
          </mxGeometry>
        </mxCell>
        <mxCell id="ek2N7RcGhcBZ1Ensz346-27" value="1" style="edgeLabel;html=1;align=center;verticalAlign=middle;resizable=0;points=[];" parent="JE2W_Q6_ty0hoF7SW9lV-14" vertex="1" connectable="0">
          <mxGeometry x="0.6253" y="-2" relative="1" as="geometry">
            <mxPoint as="offset" />
          </mxGeometry>
        </mxCell>
        <mxCell id="CGu7dW0QUWmCS7xyWsUm-1" style="edgeStyle=none;rounded=0;orthogonalLoop=1;jettySize=auto;html=1;entryX=0;entryY=0.25;entryDx=0;entryDy=0;" parent="yN5xq2XGs1i5apmsiF2Z-1" source="CGu7dW0QUWmCS7xyWsUm-0" target="yN5xq2XGs1i5apmsiF2Z-86" edge="1">
          <mxGeometry relative="1" as="geometry" />
        </mxCell>
        <mxCell id="CGu7dW0QUWmCS7xyWsUm-0" value="&lt;u&gt;St_id&lt;/u&gt;" style="ellipse;whiteSpace=wrap;html=1;align=center;fillColor=#60a917;fontColor=#ffffff;strokeColor=#2D7600;" parent="yN5xq2XGs1i5apmsiF2Z-1" vertex="1">
          <mxGeometry x="-981" y="1055.69" width="70" height="30" as="geometry" />
        </mxCell>
        <mxCell id="ek2N7RcGhcBZ1Ensz346-1" style="edgeStyle=none;rounded=0;orthogonalLoop=1;jettySize=auto;html=1;entryX=0;entryY=0.5;entryDx=0;entryDy=0;endArrow=none;endFill=0;exitX=1;exitY=0.5;exitDx=0;exitDy=0;" parent="yN5xq2XGs1i5apmsiF2Z-1" source="ek2N7RcGhcBZ1Ensz346-0" target="JE2W_Q6_ty0hoF7SW9lV-0" edge="1">
          <mxGeometry relative="1" as="geometry" />
        </mxCell>
        <mxCell id="ek2N7RcGhcBZ1Ensz346-4" value="1" style="edgeLabel;html=1;align=center;verticalAlign=middle;resizable=0;points=[];" parent="ek2N7RcGhcBZ1Ensz346-1" vertex="1" connectable="0">
          <mxGeometry x="0.7887" y="-6" relative="1" as="geometry">
            <mxPoint x="1" y="-1" as="offset" />
          </mxGeometry>
        </mxCell>
        <mxCell id="ek2N7RcGhcBZ1Ensz346-2" style="edgeStyle=none;rounded=0;orthogonalLoop=1;jettySize=auto;html=1;entryX=1;entryY=0.5;entryDx=0;entryDy=0;endArrow=none;endFill=0;" parent="yN5xq2XGs1i5apmsiF2Z-1" source="ek2N7RcGhcBZ1Ensz346-0" target="yN5xq2XGs1i5apmsiF2Z-86" edge="1">
          <mxGeometry relative="1" as="geometry" />
        </mxCell>
        <mxCell id="ek2N7RcGhcBZ1Ensz346-3" value="M" style="edgeLabel;html=1;align=center;verticalAlign=middle;resizable=0;points=[];" parent="ek2N7RcGhcBZ1Ensz346-2" vertex="1" connectable="0">
          <mxGeometry x="0.5557" y="1" relative="1" as="geometry">
            <mxPoint x="1" as="offset" />
          </mxGeometry>
        </mxCell>
        <mxCell id="ek2N7RcGhcBZ1Ensz346-0" value="HAS" style="shape=rhombus;double=1;perimeter=rhombusPerimeter;whiteSpace=wrap;html=1;align=center;" parent="yN5xq2XGs1i5apmsiF2Z-1" vertex="1">
          <mxGeometry x="-580.5" y="1115.69" width="81" height="51" as="geometry" />
        </mxCell>
        <mxCell id="ek2N7RcGhcBZ1Ensz346-5" style="edgeStyle=none;rounded=0;orthogonalLoop=1;jettySize=auto;html=1;endArrow=none;endFill=0;entryX=0;entryY=0;entryDx=0;entryDy=0;" parent="yN5xq2XGs1i5apmsiF2Z-1" source="wXOPK4AChqKwj1lSAxt4-2" target="yN5xq2XGs1i5apmsiF2Z-95" edge="1">
          <mxGeometry relative="1" as="geometry">
            <mxPoint x="-291.5" y="742.5" as="targetPoint" />
          </mxGeometry>
        </mxCell>
        <mxCell id="ek2N7RcGhcBZ1Ensz346-14" style="edgeStyle=none;rounded=0;orthogonalLoop=1;jettySize=auto;html=1;endArrow=none;endFill=0;" parent="yN5xq2XGs1i5apmsiF2Z-1" source="ek2N7RcGhcBZ1Ensz346-6" target="yN5xq2XGs1i5apmsiF2Z-101" edge="1">
          <mxGeometry relative="1" as="geometry" />
        </mxCell>
        <mxCell id="ek2N7RcGhcBZ1Ensz346-6" value="Quiz01" style="ellipse;whiteSpace=wrap;html=1;align=center;" parent="yN5xq2XGs1i5apmsiF2Z-1" vertex="1">
          <mxGeometry x="-570" y="842.5" width="60" height="25" as="geometry" />
        </mxCell>
        <mxCell id="ek2N7RcGhcBZ1Ensz346-7" value="Quiz02" style="ellipse;whiteSpace=wrap;html=1;align=center;" parent="yN5xq2XGs1i5apmsiF2Z-1" vertex="1">
          <mxGeometry x="-505.25" y="842.5" width="60" height="25" as="geometry" />
        </mxCell>
        <mxCell id="ek2N7RcGhcBZ1Ensz346-8" value="Quiz03" style="ellipse;whiteSpace=wrap;html=1;align=center;" parent="yN5xq2XGs1i5apmsiF2Z-1" vertex="1">
          <mxGeometry x="-438.5" y="842.5" width="60" height="25" as="geometry" />
        </mxCell>
        <mxCell id="ek2N7RcGhcBZ1Ensz346-9" value="Assignment" style="ellipse;whiteSpace=wrap;html=1;align=center;" parent="yN5xq2XGs1i5apmsiF2Z-1" vertex="1">
          <mxGeometry x="-370.25" y="842.5" width="71.75" height="25" as="geometry" />
        </mxCell>
        <mxCell id="ek2N7RcGhcBZ1Ensz346-18" style="edgeStyle=none;rounded=0;orthogonalLoop=1;jettySize=auto;html=1;entryX=1;entryY=1;entryDx=0;entryDy=0;endArrow=none;endFill=0;" parent="yN5xq2XGs1i5apmsiF2Z-1" source="ek2N7RcGhcBZ1Ensz346-10" target="yN5xq2XGs1i5apmsiF2Z-101" edge="1">
          <mxGeometry relative="1" as="geometry" />
        </mxCell>
        <mxCell id="ek2N7RcGhcBZ1Ensz346-10" value="Mid" style="ellipse;whiteSpace=wrap;html=1;align=center;" parent="yN5xq2XGs1i5apmsiF2Z-1" vertex="1">
          <mxGeometry x="-289.5" y="842.5" width="41" height="25" as="geometry" />
        </mxCell>
        <mxCell id="ek2N7RcGhcBZ1Ensz346-19" style="edgeStyle=none;rounded=0;orthogonalLoop=1;jettySize=auto;html=1;entryX=1;entryY=0.5;entryDx=0;entryDy=0;endArrow=none;endFill=0;" parent="yN5xq2XGs1i5apmsiF2Z-1" source="ek2N7RcGhcBZ1Ensz346-12" target="yN5xq2XGs1i5apmsiF2Z-101" edge="1">
          <mxGeometry relative="1" as="geometry" />
        </mxCell>
        <mxCell id="ek2N7RcGhcBZ1Ensz346-12" value="Final" style="ellipse;whiteSpace=wrap;html=1;align=center;" parent="yN5xq2XGs1i5apmsiF2Z-1" vertex="1">
          <mxGeometry x="-244" y="842.5" width="45.5" height="25" as="geometry" />
        </mxCell>
        <mxCell id="ek2N7RcGhcBZ1Ensz346-15" style="edgeStyle=none;rounded=0;orthogonalLoop=1;jettySize=auto;html=1;endArrow=none;endFill=0;entryX=0.222;entryY=0.924;entryDx=0;entryDy=0;entryPerimeter=0;" parent="yN5xq2XGs1i5apmsiF2Z-1" source="ek2N7RcGhcBZ1Ensz346-7" target="yN5xq2XGs1i5apmsiF2Z-101" edge="1">
          <mxGeometry relative="1" as="geometry">
            <mxPoint x="-395.5" y="806.5" as="targetPoint" />
          </mxGeometry>
        </mxCell>
        <mxCell id="ek2N7RcGhcBZ1Ensz346-16" style="edgeStyle=none;rounded=0;orthogonalLoop=1;jettySize=auto;html=1;entryX=0.333;entryY=0.977;entryDx=0;entryDy=0;entryPerimeter=0;endArrow=none;endFill=0;" parent="yN5xq2XGs1i5apmsiF2Z-1" source="ek2N7RcGhcBZ1Ensz346-8" target="yN5xq2XGs1i5apmsiF2Z-101" edge="1">
          <mxGeometry relative="1" as="geometry" />
        </mxCell>
        <mxCell id="ek2N7RcGhcBZ1Ensz346-17" style="edgeStyle=none;rounded=0;orthogonalLoop=1;jettySize=auto;html=1;entryX=0.635;entryY=0.989;entryDx=0;entryDy=0;entryPerimeter=0;endArrow=none;endFill=0;" parent="yN5xq2XGs1i5apmsiF2Z-1" source="ek2N7RcGhcBZ1Ensz346-9" target="yN5xq2XGs1i5apmsiF2Z-101" edge="1">
          <mxGeometry relative="1" as="geometry" />
        </mxCell>
        <mxCell id="ek2N7RcGhcBZ1Ensz346-21" style="edgeStyle=none;rounded=0;orthogonalLoop=1;jettySize=auto;html=1;entryX=0;entryY=0.5;entryDx=0;entryDy=0;endArrow=none;endFill=0;" parent="yN5xq2XGs1i5apmsiF2Z-1" source="ek2N7RcGhcBZ1Ensz346-20" target="yN5xq2XGs1i5apmsiF2Z-95" edge="1">
          <mxGeometry relative="1" as="geometry" />
        </mxCell>
        <mxCell id="ek2N7RcGhcBZ1Ensz346-20" value="&lt;font style=&quot;color: rgb(18, 18, 18);&quot;&gt;C_code&lt;/font&gt;" style="ellipse;whiteSpace=wrap;html=1;align=center;fillColor=#60a917;strokeColor=#2D7600;fontStyle=4;fontColor=#ffffff;" parent="yN5xq2XGs1i5apmsiF2Z-1" vertex="1">
          <mxGeometry x="-428" y="717.5" width="49.5" height="30" as="geometry" />
        </mxCell>
        <mxCell id="ek2N7RcGhcBZ1Ensz346-24" style="edgeStyle=none;rounded=0;orthogonalLoop=1;jettySize=auto;html=1;entryX=1;entryY=1;entryDx=0;entryDy=0;endArrow=none;endFill=0;jumpStyle=arc;jumpSize=9;exitX=0.5;exitY=0;exitDx=0;exitDy=0;" parent="yN5xq2XGs1i5apmsiF2Z-1" source="yN5xq2XGs1i5apmsiF2Z-104" target="yN5xq2XGs1i5apmsiF2Z-16" edge="1">
          <mxGeometry relative="1" as="geometry">
            <mxPoint x="-325.5" y="832.5000000000002" as="sourcePoint" />
          </mxGeometry>
        </mxCell>
        <mxCell id="ek2N7RcGhcBZ1Ensz346-26" value="N" style="edgeLabel;html=1;align=center;verticalAlign=middle;resizable=0;points=[];" parent="ek2N7RcGhcBZ1Ensz346-24" vertex="1" connectable="0">
          <mxGeometry x="0.8177" y="1" relative="1" as="geometry">
            <mxPoint as="offset" />
          </mxGeometry>
        </mxCell>
        <mxCell id="ek2N7RcGhcBZ1Ensz346-34" style="edgeStyle=none;rounded=0;orthogonalLoop=1;jettySize=auto;html=1;entryX=0.25;entryY=1;entryDx=0;entryDy=0;endArrow=none;endFill=0;" parent="yN5xq2XGs1i5apmsiF2Z-1" source="ek2N7RcGhcBZ1Ensz346-31" target="yN5xq2XGs1i5apmsiF2Z-86" edge="1">
          <mxGeometry relative="1" as="geometry" />
        </mxCell>
        <mxCell id="ek2N7RcGhcBZ1Ensz346-31" value="&lt;u&gt;Week_no&lt;/u&gt;" style="ellipse;whiteSpace=wrap;html=1;align=center;" parent="yN5xq2XGs1i5apmsiF2Z-1" vertex="1">
          <mxGeometry x="-885" y="1180.6900000000003" width="70.5" height="30" as="geometry" />
        </mxCell>
        <mxCell id="ek2N7RcGhcBZ1Ensz346-33" style="edgeStyle=none;rounded=0;orthogonalLoop=1;jettySize=auto;html=1;entryX=-0.006;entryY=0.624;entryDx=0;entryDy=0;entryPerimeter=0;" parent="yN5xq2XGs1i5apmsiF2Z-1" source="ek2N7RcGhcBZ1Ensz346-32" target="yN5xq2XGs1i5apmsiF2Z-86" edge="1">
          <mxGeometry relative="1" as="geometry" />
        </mxCell>
        <mxCell id="ek2N7RcGhcBZ1Ensz346-32" value="Session_id" style="ellipse;whiteSpace=wrap;html=1;align=center;fillColor=#008a00;fontColor=#ffffff;strokeColor=#005700;" parent="yN5xq2XGs1i5apmsiF2Z-1" vertex="1">
          <mxGeometry x="-976" y="1155.6900000000003" width="60" height="30" as="geometry" />
        </mxCell>
        <mxCell id="ek2N7RcGhcBZ1Ensz346-36" value="Dob" style="ellipse;whiteSpace=wrap;html=1;align=center;" parent="yN5xq2XGs1i5apmsiF2Z-1" vertex="1">
          <mxGeometry x="900" y="330" width="40" height="30" as="geometry" />
        </mxCell>
        <mxCell id="ek2N7RcGhcBZ1Ensz346-38" style="edgeStyle=none;rounded=0;orthogonalLoop=1;jettySize=auto;html=1;entryX=0;entryY=0;entryDx=0;entryDy=0;endArrow=none;endFill=0;" parent="yN5xq2XGs1i5apmsiF2Z-1" source="ek2N7RcGhcBZ1Ensz346-36" target="yN5xq2XGs1i5apmsiF2Z-21" edge="1">
          <mxGeometry relative="1" as="geometry" />
        </mxCell>
        <mxCell id="YrKaeUCYNQfRJ1UZe-Y2-0" value="HAS" style="shape=rhombus;double=1;perimeter=rhombusPerimeter;whiteSpace=wrap;html=1;align=center;" vertex="1" parent="yN5xq2XGs1i5apmsiF2Z-1">
          <mxGeometry x="-281" y="569" width="80" height="41" as="geometry" />
        </mxCell>
        <mxCell id="YrKaeUCYNQfRJ1UZe-Y2-1" style="rounded=0;orthogonalLoop=1;jettySize=auto;html=1;entryX=0.478;entryY=-0.003;entryDx=0;entryDy=0;entryPerimeter=0;endArrow=none;endFill=0;" edge="1" parent="yN5xq2XGs1i5apmsiF2Z-1" source="YrKaeUCYNQfRJ1UZe-Y2-0" target="yN5xq2XGs1i5apmsiF2Z-95">
          <mxGeometry relative="1" as="geometry" />
        </mxCell>
        <mxCell id="YrKaeUCYNQfRJ1UZe-Y2-5" value="N" style="edgeLabel;html=1;align=center;verticalAlign=middle;resizable=0;points=[];" vertex="1" connectable="0" parent="YrKaeUCYNQfRJ1UZe-Y2-1">
          <mxGeometry x="0.6343" y="1" relative="1" as="geometry">
            <mxPoint as="offset" />
          </mxGeometry>
        </mxCell>
        <mxCell id="YrKaeUCYNQfRJ1UZe-Y2-3" style="rounded=0;orthogonalLoop=1;jettySize=auto;html=1;endArrow=none;endFill=0;entryX=0.611;entryY=0.998;entryDx=0;entryDy=0;entryPerimeter=0;" edge="1" parent="yN5xq2XGs1i5apmsiF2Z-1" source="YrKaeUCYNQfRJ1UZe-Y2-2" target="yN5xq2XGs1i5apmsiF2Z-95">
          <mxGeometry relative="1" as="geometry">
            <mxPoint x="-210" y="750" as="targetPoint" />
          </mxGeometry>
        </mxCell>
        <mxCell id="YrKaeUCYNQfRJ1UZe-Y2-7" value="N" style="edgeLabel;html=1;align=center;verticalAlign=middle;resizable=0;points=[];" vertex="1" connectable="0" parent="YrKaeUCYNQfRJ1UZe-Y2-3">
          <mxGeometry x="0.5329" y="-1" relative="1" as="geometry">
            <mxPoint as="offset" />
          </mxGeometry>
        </mxCell>
        <mxCell id="YrKaeUCYNQfRJ1UZe-Y2-4" style="rounded=0;orthogonalLoop=1;jettySize=auto;html=1;entryX=0;entryY=0.25;entryDx=0;entryDy=0;endArrow=none;endFill=0;" edge="1" parent="yN5xq2XGs1i5apmsiF2Z-1" source="YrKaeUCYNQfRJ1UZe-Y2-2" target="yN5xq2XGs1i5apmsiF2Z-50">
          <mxGeometry relative="1" as="geometry" />
        </mxCell>
        <mxCell id="YrKaeUCYNQfRJ1UZe-Y2-8" value="1" style="edgeLabel;html=1;align=center;verticalAlign=middle;resizable=0;points=[];" vertex="1" connectable="0" parent="YrKaeUCYNQfRJ1UZe-Y2-4">
          <mxGeometry x="0.7021" y="-2" relative="1" as="geometry">
            <mxPoint as="offset" />
          </mxGeometry>
        </mxCell>
        <mxCell id="YrKaeUCYNQfRJ1UZe-Y2-2" value="Has" style="shape=rhombus;double=1;perimeter=rhombusPerimeter;whiteSpace=wrap;html=1;align=center;" vertex="1" parent="yN5xq2XGs1i5apmsiF2Z-1">
          <mxGeometry x="-161" y="856" width="81" height="54" as="geometry" />
        </mxCell>
      </root>
    </mxGraphModel>
  </diagram>
  <diagram name="RM (for ER Final)" id="ACY8ijXzVds_ROHEL6HQ">
    <mxGraphModel dx="772" dy="369" grid="1" gridSize="10" guides="1" tooltips="1" connect="1" arrows="1" fold="1" page="1" pageScale="1" pageWidth="827" pageHeight="1169" math="0" shadow="0">
      <root>
        <mxCell id="_tiB8tEmEpVmkrLslOVU-0" />
        <mxCell id="_tiB8tEmEpVmkrLslOVU-1" parent="_tiB8tEmEpVmkrLslOVU-0" />
        <mxCell id="tT7prj-xix1qQhtasbN7-0" value="" style="shape=table;startSize=0;container=1;collapsible=0;childLayout=tableLayout;" parent="_tiB8tEmEpVmkrLslOVU-1" vertex="1">
          <mxGeometry x="80" y="40" width="640" height="40" as="geometry" />
        </mxCell>
        <mxCell id="tT7prj-xix1qQhtasbN7-1" value="" style="shape=tableRow;horizontal=0;startSize=0;swimlaneHead=0;swimlaneBody=0;strokeColor=inherit;top=0;left=0;bottom=0;right=0;collapsible=0;dropTarget=0;fillColor=none;points=[[0,0.5],[1,0.5]];portConstraint=eastwest;" parent="tT7prj-xix1qQhtasbN7-0" vertex="1">
          <mxGeometry width="640" height="40" as="geometry" />
        </mxCell>
        <mxCell id="tT7prj-xix1qQhtasbN7-2" value="&lt;u&gt;St_id&lt;/u&gt;" style="shape=partialRectangle;html=1;whiteSpace=wrap;connectable=0;strokeColor=inherit;overflow=hidden;fillColor=none;top=0;left=0;bottom=0;right=0;pointerEvents=1;" parent="tT7prj-xix1qQhtasbN7-1" vertex="1">
          <mxGeometry width="99" height="40" as="geometry">
            <mxRectangle width="99" height="40" as="alternateBounds" />
          </mxGeometry>
        </mxCell>
        <mxCell id="tT7prj-xix1qQhtasbN7-3" value="" style="shape=partialRectangle;html=1;whiteSpace=wrap;connectable=0;strokeColor=inherit;overflow=hidden;fillColor=none;top=0;left=0;bottom=0;right=0;pointerEvents=1;" parent="tT7prj-xix1qQhtasbN7-1" vertex="1">
          <mxGeometry x="99" width="59" height="40" as="geometry">
            <mxRectangle width="59" height="40" as="alternateBounds" />
          </mxGeometry>
        </mxCell>
        <mxCell id="tT7prj-xix1qQhtasbN7-4" value="City" style="shape=partialRectangle;html=1;whiteSpace=wrap;connectable=0;strokeColor=inherit;overflow=hidden;fillColor=none;top=0;left=0;bottom=0;right=0;pointerEvents=1;" parent="tT7prj-xix1qQhtasbN7-1" vertex="1">
          <mxGeometry x="158" width="69" height="40" as="geometry">
            <mxRectangle width="69" height="40" as="alternateBounds" />
          </mxGeometry>
        </mxCell>
        <mxCell id="tT7prj-xix1qQhtasbN7-5" value="Street" style="shape=partialRectangle;html=1;whiteSpace=wrap;connectable=0;strokeColor=inherit;overflow=hidden;fillColor=none;top=0;left=0;bottom=0;right=0;pointerEvents=1;" parent="tT7prj-xix1qQhtasbN7-1" vertex="1">
          <mxGeometry x="227" width="59" height="40" as="geometry">
            <mxRectangle width="59" height="40" as="alternateBounds" />
          </mxGeometry>
        </mxCell>
        <mxCell id="tT7prj-xix1qQhtasbN7-6" value="" style="shape=partialRectangle;html=1;whiteSpace=wrap;connectable=0;strokeColor=inherit;overflow=hidden;fillColor=none;top=0;left=0;bottom=0;right=0;pointerEvents=1;" parent="tT7prj-xix1qQhtasbN7-1" vertex="1">
          <mxGeometry x="286" width="76" height="40" as="geometry">
            <mxRectangle width="76" height="40" as="alternateBounds" />
          </mxGeometry>
        </mxCell>
        <mxCell id="tT7prj-xix1qQhtasbN7-7" value="" style="shape=partialRectangle;html=1;whiteSpace=wrap;connectable=0;strokeColor=inherit;overflow=hidden;fillColor=none;top=0;left=0;bottom=0;right=0;pointerEvents=1;" parent="tT7prj-xix1qQhtasbN7-1" vertex="1">
          <mxGeometry x="362" width="58" height="40" as="geometry">
            <mxRectangle width="58" height="40" as="alternateBounds" />
          </mxGeometry>
        </mxCell>
        <mxCell id="tT7prj-xix1qQhtasbN7-8" value="" style="shape=partialRectangle;html=1;whiteSpace=wrap;connectable=0;strokeColor=inherit;overflow=hidden;fillColor=none;top=0;left=0;bottom=0;right=0;pointerEvents=1;" parent="tT7prj-xix1qQhtasbN7-1" vertex="1">
          <mxGeometry x="420" width="60" height="40" as="geometry">
            <mxRectangle width="60" height="40" as="alternateBounds" />
          </mxGeometry>
        </mxCell>
        <mxCell id="tT7prj-xix1qQhtasbN7-9" value="" style="shape=partialRectangle;html=1;whiteSpace=wrap;connectable=0;strokeColor=inherit;overflow=hidden;fillColor=none;top=0;left=0;bottom=0;right=0;pointerEvents=1;" parent="tT7prj-xix1qQhtasbN7-1" vertex="1">
          <mxGeometry x="480" width="70" height="40" as="geometry">
            <mxRectangle width="70" height="40" as="alternateBounds" />
          </mxGeometry>
        </mxCell>
        <mxCell id="tT7prj-xix1qQhtasbN7-10" value="" style="shape=partialRectangle;html=1;whiteSpace=wrap;connectable=0;strokeColor=inherit;overflow=hidden;fillColor=none;top=0;left=0;bottom=0;right=0;pointerEvents=1;" parent="tT7prj-xix1qQhtasbN7-1" vertex="1">
          <mxGeometry x="550" width="90" height="40" as="geometry">
            <mxRectangle width="90" height="40" as="alternateBounds" />
          </mxGeometry>
        </mxCell>
        <mxCell id="a8w17MpJCS2gWCcQ4iQM-0" value="" style="shape=table;startSize=0;container=1;collapsible=0;childLayout=tableLayout;" parent="_tiB8tEmEpVmkrLslOVU-1" vertex="1">
          <mxGeometry x="80" y="200" width="120" height="40" as="geometry" />
        </mxCell>
        <mxCell id="a8w17MpJCS2gWCcQ4iQM-1" value="" style="shape=tableRow;horizontal=0;startSize=0;swimlaneHead=0;swimlaneBody=0;strokeColor=inherit;top=0;left=0;bottom=0;right=0;collapsible=0;dropTarget=0;fillColor=none;points=[[0,0.5],[1,0.5]];portConstraint=eastwest;" parent="a8w17MpJCS2gWCcQ4iQM-0" vertex="1">
          <mxGeometry width="120" height="40" as="geometry" />
        </mxCell>
        <mxCell id="a8w17MpJCS2gWCcQ4iQM-2" value="&lt;u&gt;St_id&lt;/u&gt;" style="shape=partialRectangle;html=1;whiteSpace=wrap;connectable=0;strokeColor=inherit;overflow=hidden;fillColor=none;top=0;left=0;bottom=0;right=0;pointerEvents=1;" parent="a8w17MpJCS2gWCcQ4iQM-1" vertex="1">
          <mxGeometry width="60" height="40" as="geometry">
            <mxRectangle width="60" height="40" as="alternateBounds" />
          </mxGeometry>
        </mxCell>
        <mxCell id="a8w17MpJCS2gWCcQ4iQM-3" value="&lt;u&gt;Phone&lt;/u&gt;" style="shape=partialRectangle;html=1;whiteSpace=wrap;connectable=0;strokeColor=inherit;overflow=hidden;fillColor=none;top=0;left=0;bottom=0;right=0;pointerEvents=1;" parent="a8w17MpJCS2gWCcQ4iQM-1" vertex="1">
          <mxGeometry x="60" width="60" height="40" as="geometry">
            <mxRectangle width="60" height="40" as="alternateBounds" />
          </mxGeometry>
        </mxCell>
        <mxCell id="a8w17MpJCS2gWCcQ4iQM-4" value="STUDENT_PHONE" style="text;html=1;align=left;verticalAlign=middle;resizable=0;points=[];autosize=1;strokeColor=none;fillColor=none;" parent="_tiB8tEmEpVmkrLslOVU-1" vertex="1">
          <mxGeometry x="80" y="170" width="130" height="30" as="geometry" />
        </mxCell>
        <mxCell id="DI4peuhaci5z_CWcxidW-0" value="STUDENT" style="text;html=1;align=left;verticalAlign=middle;resizable=0;points=[];autosize=1;strokeColor=none;fillColor=none;" parent="_tiB8tEmEpVmkrLslOVU-1" vertex="1">
          <mxGeometry x="80" y="10" width="80" height="30" as="geometry" />
        </mxCell>
        <mxCell id="DI4peuhaci5z_CWcxidW-2" style="edgeStyle=orthogonalEdgeStyle;rounded=0;orthogonalLoop=1;jettySize=auto;html=1;entryX=0.141;entryY=1;entryDx=0;entryDy=0;entryPerimeter=0;exitX=0.25;exitY=1;exitDx=0;exitDy=0;" parent="_tiB8tEmEpVmkrLslOVU-1" source="a8w17MpJCS2gWCcQ4iQM-0" target="tT7prj-xix1qQhtasbN7-0" edge="1">
          <mxGeometry relative="1" as="geometry">
            <mxPoint x="170" y="90" as="targetPoint" />
            <Array as="points">
              <mxPoint x="110" y="250" />
              <mxPoint x="220" y="250" />
              <mxPoint x="220" y="160" />
              <mxPoint x="170" y="160" />
            </Array>
          </mxGeometry>
        </mxCell>
        <mxCell id="n-RmndSrbS7McS8RLStx-0" style="edgeStyle=orthogonalEdgeStyle;rounded=0;orthogonalLoop=1;jettySize=auto;html=1;exitX=0.189;exitY=1.014;exitDx=0;exitDy=0;entryX=0.122;entryY=1;entryDx=0;entryDy=0;entryPerimeter=0;exitPerimeter=0;" parent="_tiB8tEmEpVmkrLslOVU-1" source="W0IIi7LNAk5jsdLd20-b-0" target="tT7prj-xix1qQhtasbN7-1" edge="1">
          <mxGeometry relative="1" as="geometry">
            <mxPoint x="160" y="90" as="targetPoint" />
            <Array as="points">
              <mxPoint x="120" y="370" />
              <mxPoint x="60" y="370" />
              <mxPoint x="60" y="160" />
              <mxPoint x="158" y="160" />
            </Array>
          </mxGeometry>
        </mxCell>
        <mxCell id="W0IIi7LNAk5jsdLd20-b-0" value="" style="shape=table;startSize=0;container=1;collapsible=0;childLayout=tableLayout;" parent="_tiB8tEmEpVmkrLslOVU-1" vertex="1">
          <mxGeometry x="80" y="317" width="210" height="40" as="geometry" />
        </mxCell>
        <mxCell id="W0IIi7LNAk5jsdLd20-b-1" value="" style="shape=tableRow;horizontal=0;startSize=0;swimlaneHead=0;swimlaneBody=0;strokeColor=inherit;top=0;left=0;bottom=0;right=0;collapsible=0;dropTarget=0;fillColor=none;points=[[0,0.5],[1,0.5]];portConstraint=eastwest;" parent="W0IIi7LNAk5jsdLd20-b-0" vertex="1">
          <mxGeometry width="210" height="40" as="geometry" />
        </mxCell>
        <mxCell id="W0IIi7LNAk5jsdLd20-b-3" value="St_id" style="shape=partialRectangle;html=1;whiteSpace=wrap;connectable=0;strokeColor=inherit;overflow=hidden;fillColor=none;top=0;left=0;bottom=0;right=0;pointerEvents=1;fontStyle=4" parent="W0IIi7LNAk5jsdLd20-b-1" vertex="1">
          <mxGeometry width="80" height="40" as="geometry">
            <mxRectangle width="80" height="40" as="alternateBounds" />
          </mxGeometry>
        </mxCell>
        <mxCell id="W0IIi7LNAk5jsdLd20-b-4" value="&lt;u&gt;Exam_id&lt;/u&gt;" style="shape=partialRectangle;html=1;whiteSpace=wrap;connectable=0;strokeColor=inherit;overflow=hidden;fillColor=none;top=0;left=0;bottom=0;right=0;pointerEvents=1;" parent="W0IIi7LNAk5jsdLd20-b-1" vertex="1">
          <mxGeometry x="80" width="60" height="40" as="geometry">
            <mxRectangle width="60" height="40" as="alternateBounds" />
          </mxGeometry>
        </mxCell>
        <mxCell id="W0IIi7LNAk5jsdLd20-b-5" value="&lt;div&gt;Marks&lt;/div&gt;" style="shape=partialRectangle;html=1;whiteSpace=wrap;connectable=0;strokeColor=inherit;overflow=hidden;fillColor=none;top=0;left=0;bottom=0;right=0;pointerEvents=1;" parent="W0IIi7LNAk5jsdLd20-b-1" vertex="1">
          <mxGeometry x="140" width="70" height="40" as="geometry">
            <mxRectangle width="70" height="40" as="alternateBounds" />
          </mxGeometry>
        </mxCell>
        <mxCell id="W0IIi7LNAk5jsdLd20-b-7" value="MARK" style="text;html=1;align=left;verticalAlign=middle;resizable=0;points=[];autosize=1;strokeColor=none;fillColor=none;" parent="_tiB8tEmEpVmkrLslOVU-1" vertex="1">
          <mxGeometry x="80" y="287" width="60" height="30" as="geometry" />
        </mxCell>
        <mxCell id="_232f9qkSqgT6TGqrWzG-0" value="" style="shape=table;startSize=0;container=1;collapsible=0;childLayout=tableLayout;" parent="_tiB8tEmEpVmkrLslOVU-1" vertex="1">
          <mxGeometry x="80" y="437" width="360" height="40" as="geometry" />
        </mxCell>
        <mxCell id="_232f9qkSqgT6TGqrWzG-1" value="" style="shape=tableRow;horizontal=0;startSize=0;swimlaneHead=0;swimlaneBody=0;strokeColor=inherit;top=0;left=0;bottom=0;right=0;collapsible=0;dropTarget=0;fillColor=none;points=[[0,0.5],[1,0.5]];portConstraint=eastwest;" parent="_232f9qkSqgT6TGqrWzG-0" vertex="1">
          <mxGeometry width="360" height="40" as="geometry" />
        </mxCell>
        <mxCell id="_232f9qkSqgT6TGqrWzG-2" value="Medical_id" style="shape=partialRectangle;html=1;whiteSpace=wrap;connectable=0;strokeColor=inherit;overflow=hidden;fillColor=none;top=0;left=0;bottom=0;right=0;pointerEvents=1;fontStyle=4" parent="_232f9qkSqgT6TGqrWzG-1" vertex="1">
          <mxGeometry width="77" height="40" as="geometry">
            <mxRectangle width="77" height="40" as="alternateBounds" />
          </mxGeometry>
        </mxCell>
        <mxCell id="_232f9qkSqgT6TGqrWzG-3" value="Status" style="shape=partialRectangle;html=1;whiteSpace=wrap;connectable=0;strokeColor=inherit;overflow=hidden;fillColor=none;top=0;left=0;bottom=0;right=0;pointerEvents=1;" parent="_232f9qkSqgT6TGqrWzG-1" vertex="1">
          <mxGeometry x="77" width="87" height="40" as="geometry">
            <mxRectangle width="87" height="40" as="alternateBounds" />
          </mxGeometry>
        </mxCell>
        <mxCell id="_232f9qkSqgT6TGqrWzG-4" value="Date_submitted" style="shape=partialRectangle;html=1;whiteSpace=wrap;connectable=0;strokeColor=inherit;overflow=hidden;fillColor=none;top=0;left=0;bottom=0;right=0;pointerEvents=1;" parent="_232f9qkSqgT6TGqrWzG-1" vertex="1">
          <mxGeometry x="164" width="126" height="40" as="geometry">
            <mxRectangle width="126" height="40" as="alternateBounds" />
          </mxGeometry>
        </mxCell>
        <mxCell id="_232f9qkSqgT6TGqrWzG-5" value="St_id" style="shape=partialRectangle;html=1;whiteSpace=wrap;connectable=0;strokeColor=inherit;overflow=hidden;fillColor=none;top=0;left=0;bottom=0;right=0;pointerEvents=1;" parent="_232f9qkSqgT6TGqrWzG-1" vertex="1">
          <mxGeometry x="290" width="70" height="40" as="geometry">
            <mxRectangle width="70" height="40" as="alternateBounds" />
          </mxGeometry>
        </mxCell>
        <mxCell id="LV1jHeiykwOVj8syV5hZ-1" value="" style="shape=table;startSize=0;container=1;collapsible=0;childLayout=tableLayout;" parent="_tiB8tEmEpVmkrLslOVU-1" vertex="1">
          <mxGeometry x="80" y="550" width="290" height="40" as="geometry" />
        </mxCell>
        <mxCell id="LV1jHeiykwOVj8syV5hZ-2" value="" style="shape=tableRow;horizontal=0;startSize=0;swimlaneHead=0;swimlaneBody=0;strokeColor=inherit;top=0;left=0;bottom=0;right=0;collapsible=0;dropTarget=0;fillColor=none;points=[[0,0.5],[1,0.5]];portConstraint=eastwest;" parent="LV1jHeiykwOVj8syV5hZ-1" vertex="1">
          <mxGeometry width="290" height="40" as="geometry" />
        </mxCell>
        <mxCell id="LV1jHeiykwOVj8syV5hZ-3" value="C_code" style="shape=partialRectangle;html=1;whiteSpace=wrap;connectable=0;strokeColor=inherit;overflow=hidden;fillColor=none;top=0;left=0;bottom=0;right=0;pointerEvents=1;fontStyle=4" parent="LV1jHeiykwOVj8syV5hZ-2" vertex="1">
          <mxGeometry width="70" height="40" as="geometry">
            <mxRectangle width="70" height="40" as="alternateBounds" />
          </mxGeometry>
        </mxCell>
        <mxCell id="LV1jHeiykwOVj8syV5hZ-4" value="C_name" style="shape=partialRectangle;html=1;whiteSpace=wrap;connectable=0;strokeColor=inherit;overflow=hidden;fillColor=none;top=0;left=0;bottom=0;right=0;pointerEvents=1;" parent="LV1jHeiykwOVj8syV5hZ-2" vertex="1">
          <mxGeometry x="70" width="80" height="40" as="geometry">
            <mxRectangle width="80" height="40" as="alternateBounds" />
          </mxGeometry>
        </mxCell>
        <mxCell id="LV1jHeiykwOVj8syV5hZ-5" value="Credit" style="shape=partialRectangle;html=1;whiteSpace=wrap;connectable=0;strokeColor=inherit;overflow=hidden;fillColor=none;top=0;left=0;bottom=0;right=0;pointerEvents=1;" parent="LV1jHeiykwOVj8syV5hZ-2" vertex="1">
          <mxGeometry x="150" width="80" height="40" as="geometry">
            <mxRectangle width="80" height="40" as="alternateBounds" />
          </mxGeometry>
        </mxCell>
        <mxCell id="LV1jHeiykwOVj8syV5hZ-7" value="Lec_id" style="shape=partialRectangle;html=1;whiteSpace=wrap;connectable=0;strokeColor=inherit;overflow=hidden;fillColor=none;top=0;left=0;bottom=0;right=0;pointerEvents=1;fontStyle=0" parent="LV1jHeiykwOVj8syV5hZ-2" vertex="1">
          <mxGeometry x="230" width="60" height="40" as="geometry">
            <mxRectangle width="60" height="40" as="alternateBounds" />
          </mxGeometry>
        </mxCell>
        <mxCell id="LV1jHeiykwOVj8syV5hZ-16" value="MEDICAL" style="text;strokeColor=none;align=center;fillColor=none;html=1;verticalAlign=middle;whiteSpace=wrap;rounded=0;" parent="_tiB8tEmEpVmkrLslOVU-1" vertex="1">
          <mxGeometry x="80" y="407" width="60" height="30" as="geometry" />
        </mxCell>
        <mxCell id="uJqX0hBABi6My97VCVzp-0" value="COURSE" style="text;strokeColor=none;align=center;fillColor=none;html=1;verticalAlign=middle;whiteSpace=wrap;rounded=0;" parent="_tiB8tEmEpVmkrLslOVU-1" vertex="1">
          <mxGeometry x="80" y="520" width="60" height="30" as="geometry" />
        </mxCell>
        <mxCell id="uJqX0hBABi6My97VCVzp-9" value="ATTENDS" style="text;strokeColor=none;align=center;fillColor=none;html=1;verticalAlign=middle;whiteSpace=wrap;rounded=0;" parent="_tiB8tEmEpVmkrLslOVU-1" vertex="1">
          <mxGeometry x="80" y="990" width="60" height="30" as="geometry" />
        </mxCell>
        <mxCell id="uJqX0hBABi6My97VCVzp-10" value="" style="shape=table;startSize=0;container=1;collapsible=0;childLayout=tableLayout;fontStyle=4" parent="_tiB8tEmEpVmkrLslOVU-1" vertex="1">
          <mxGeometry x="80" y="1020" width="240" height="40" as="geometry" />
        </mxCell>
        <mxCell id="uJqX0hBABi6My97VCVzp-11" value="" style="shape=tableRow;horizontal=0;startSize=0;swimlaneHead=0;swimlaneBody=0;strokeColor=inherit;top=0;left=0;bottom=0;right=0;collapsible=0;dropTarget=0;fillColor=none;points=[[0,0.5],[1,0.5]];portConstraint=eastwest;" parent="uJqX0hBABi6My97VCVzp-10" vertex="1">
          <mxGeometry width="240" height="40" as="geometry" />
        </mxCell>
        <mxCell id="uJqX0hBABi6My97VCVzp-13" value="" style="shape=partialRectangle;html=1;whiteSpace=wrap;connectable=0;strokeColor=inherit;overflow=hidden;fillColor=none;top=0;left=0;bottom=0;right=0;pointerEvents=1;" parent="uJqX0hBABi6My97VCVzp-11" vertex="1">
          <mxGeometry width="80" height="40" as="geometry">
            <mxRectangle width="80" height="40" as="alternateBounds" />
          </mxGeometry>
        </mxCell>
        <mxCell id="uJqX0hBABi6My97VCVzp-14" value="" style="shape=partialRectangle;html=1;whiteSpace=wrap;connectable=0;strokeColor=inherit;overflow=hidden;fillColor=none;top=0;left=0;bottom=0;right=0;pointerEvents=1;fontStyle=4" parent="uJqX0hBABi6My97VCVzp-11" vertex="1">
          <mxGeometry x="80" width="80" height="40" as="geometry">
            <mxRectangle width="80" height="40" as="alternateBounds" />
          </mxGeometry>
        </mxCell>
        <mxCell id="uJqX0hBABi6My97VCVzp-15" value="" style="shape=partialRectangle;html=1;whiteSpace=wrap;connectable=0;strokeColor=inherit;overflow=hidden;fillColor=none;top=0;left=0;bottom=0;right=0;pointerEvents=1;" parent="uJqX0hBABi6My97VCVzp-11" vertex="1">
          <mxGeometry x="160" width="80" height="40" as="geometry">
            <mxRectangle width="80" height="40" as="alternateBounds" />
          </mxGeometry>
        </mxCell>
        <mxCell id="uJqX0hBABi6My97VCVzp-19" value="LECTURER" style="text;strokeColor=none;align=center;fillColor=none;html=1;verticalAlign=middle;whiteSpace=wrap;rounded=0;" parent="_tiB8tEmEpVmkrLslOVU-1" vertex="1">
          <mxGeometry x="84" y="1140" width="60" height="30" as="geometry" />
        </mxCell>
        <mxCell id="uJqX0hBABi6My97VCVzp-20" value="" style="shape=table;startSize=0;container=1;collapsible=0;childLayout=tableLayout;" parent="_tiB8tEmEpVmkrLslOVU-1" vertex="1">
          <mxGeometry x="80" y="1169" width="610" height="40" as="geometry" />
        </mxCell>
        <mxCell id="uJqX0hBABi6My97VCVzp-21" value="" style="shape=tableRow;horizontal=0;startSize=0;swimlaneHead=0;swimlaneBody=0;strokeColor=inherit;top=0;left=0;bottom=0;right=0;collapsible=0;dropTarget=0;fillColor=none;points=[[0,0.5],[1,0.5]];portConstraint=eastwest;" parent="uJqX0hBABi6My97VCVzp-20" vertex="1">
          <mxGeometry width="610" height="40" as="geometry" />
        </mxCell>
        <mxCell id="uJqX0hBABi6My97VCVzp-22" value="Lec_id" style="shape=partialRectangle;html=1;whiteSpace=wrap;connectable=0;strokeColor=inherit;overflow=hidden;fillColor=none;top=0;left=0;bottom=0;right=0;pointerEvents=1;fontStyle=4" parent="uJqX0hBABi6My97VCVzp-21" vertex="1">
          <mxGeometry width="70" height="40" as="geometry">
            <mxRectangle width="70" height="40" as="alternateBounds" />
          </mxGeometry>
        </mxCell>
        <mxCell id="uJqX0hBABi6My97VCVzp-23" value="" style="shape=partialRectangle;html=1;whiteSpace=wrap;connectable=0;strokeColor=inherit;overflow=hidden;fillColor=none;top=0;left=0;bottom=0;right=0;pointerEvents=1;" parent="uJqX0hBABi6My97VCVzp-21" vertex="1">
          <mxGeometry x="70" width="50" height="40" as="geometry">
            <mxRectangle width="50" height="40" as="alternateBounds" />
          </mxGeometry>
        </mxCell>
        <mxCell id="uJqX0hBABi6My97VCVzp-24" value="" style="shape=partialRectangle;html=1;whiteSpace=wrap;connectable=0;strokeColor=inherit;overflow=hidden;fillColor=none;top=0;left=0;bottom=0;right=0;pointerEvents=1;" parent="uJqX0hBABi6My97VCVzp-21" vertex="1">
          <mxGeometry x="120" width="60" height="40" as="geometry">
            <mxRectangle width="60" height="40" as="alternateBounds" />
          </mxGeometry>
        </mxCell>
        <mxCell id="uJqX0hBABi6My97VCVzp-25" value="" style="shape=partialRectangle;html=1;whiteSpace=wrap;connectable=0;strokeColor=inherit;overflow=hidden;fillColor=none;top=0;left=0;bottom=0;right=0;pointerEvents=1;" parent="uJqX0hBABi6My97VCVzp-21" vertex="1">
          <mxGeometry x="180" width="70" height="40" as="geometry">
            <mxRectangle width="70" height="40" as="alternateBounds" />
          </mxGeometry>
        </mxCell>
        <mxCell id="uJqX0hBABi6My97VCVzp-26" value="" style="shape=partialRectangle;html=1;whiteSpace=wrap;connectable=0;strokeColor=inherit;overflow=hidden;fillColor=none;top=0;left=0;bottom=0;right=0;pointerEvents=1;" parent="uJqX0hBABi6My97VCVzp-21" vertex="1">
          <mxGeometry x="250" width="70" height="40" as="geometry">
            <mxRectangle width="70" height="40" as="alternateBounds" />
          </mxGeometry>
        </mxCell>
        <mxCell id="uJqX0hBABi6My97VCVzp-27" value="" style="shape=partialRectangle;html=1;whiteSpace=wrap;connectable=0;strokeColor=inherit;overflow=hidden;fillColor=none;top=0;left=0;bottom=0;right=0;pointerEvents=1;" parent="uJqX0hBABi6My97VCVzp-21" vertex="1">
          <mxGeometry x="320" width="80" height="40" as="geometry">
            <mxRectangle width="80" height="40" as="alternateBounds" />
          </mxGeometry>
        </mxCell>
        <mxCell id="uJqX0hBABi6My97VCVzp-28" value="" style="shape=partialRectangle;html=1;whiteSpace=wrap;connectable=0;strokeColor=inherit;overflow=hidden;fillColor=none;top=0;left=0;bottom=0;right=0;pointerEvents=1;" parent="uJqX0hBABi6My97VCVzp-21" vertex="1">
          <mxGeometry x="400" width="60" height="40" as="geometry">
            <mxRectangle width="60" height="40" as="alternateBounds" />
          </mxGeometry>
        </mxCell>
        <mxCell id="mmcW-JgOqtuN_uXGNvST-3" value="" style="shape=partialRectangle;html=1;whiteSpace=wrap;connectable=0;strokeColor=inherit;overflow=hidden;fillColor=none;top=0;left=0;bottom=0;right=0;pointerEvents=1;" parent="uJqX0hBABi6My97VCVzp-21" vertex="1">
          <mxGeometry x="460" width="90" height="40" as="geometry">
            <mxRectangle width="90" height="40" as="alternateBounds" />
          </mxGeometry>
        </mxCell>
        <mxCell id="mmcW-JgOqtuN_uXGNvST-2" value="" style="shape=partialRectangle;html=1;whiteSpace=wrap;connectable=0;strokeColor=inherit;overflow=hidden;fillColor=none;top=0;left=0;bottom=0;right=0;pointerEvents=1;" parent="uJqX0hBABi6My97VCVzp-21" vertex="1">
          <mxGeometry x="550" width="60" height="40" as="geometry">
            <mxRectangle width="60" height="40" as="alternateBounds" />
          </mxGeometry>
        </mxCell>
        <mxCell id="mmcW-JgOqtuN_uXGNvST-4" value="LECTURER_PHONE" style="text;strokeColor=none;align=center;fillColor=none;html=1;verticalAlign=middle;whiteSpace=wrap;rounded=0;" parent="_tiB8tEmEpVmkrLslOVU-1" vertex="1">
          <mxGeometry x="107" y="1279" width="60" height="30" as="geometry" />
        </mxCell>
        <mxCell id="mmcW-JgOqtuN_uXGNvST-5" value="" style="shape=table;startSize=0;container=1;collapsible=0;childLayout=tableLayout;" parent="_tiB8tEmEpVmkrLslOVU-1" vertex="1">
          <mxGeometry x="80" y="1310" width="120" height="40" as="geometry" />
        </mxCell>
        <mxCell id="mmcW-JgOqtuN_uXGNvST-6" value="" style="shape=tableRow;horizontal=0;startSize=0;swimlaneHead=0;swimlaneBody=0;strokeColor=inherit;top=0;left=0;bottom=0;right=0;collapsible=0;dropTarget=0;fillColor=none;points=[[0,0.5],[1,0.5]];portConstraint=eastwest;" parent="mmcW-JgOqtuN_uXGNvST-5" vertex="1">
          <mxGeometry width="120" height="40" as="geometry" />
        </mxCell>
        <mxCell id="mmcW-JgOqtuN_uXGNvST-7" value="&lt;u&gt;Lec_id&lt;/u&gt;" style="shape=partialRectangle;html=1;whiteSpace=wrap;connectable=0;strokeColor=inherit;overflow=hidden;fillColor=none;top=0;left=0;bottom=0;right=0;pointerEvents=1;" parent="mmcW-JgOqtuN_uXGNvST-6" vertex="1">
          <mxGeometry width="60" height="40" as="geometry">
            <mxRectangle width="60" height="40" as="alternateBounds" />
          </mxGeometry>
        </mxCell>
        <mxCell id="mmcW-JgOqtuN_uXGNvST-8" value="&lt;u&gt;Phone&lt;/u&gt;" style="shape=partialRectangle;html=1;whiteSpace=wrap;connectable=0;strokeColor=inherit;overflow=hidden;fillColor=none;top=0;left=0;bottom=0;right=0;pointerEvents=1;" parent="mmcW-JgOqtuN_uXGNvST-6" vertex="1">
          <mxGeometry x="60" width="60" height="40" as="geometry">
            <mxRectangle width="60" height="40" as="alternateBounds" />
          </mxGeometry>
        </mxCell>
        <mxCell id="mmcW-JgOqtuN_uXGNvST-9" value="ENROLLS_IN" style="text;strokeColor=none;align=center;fillColor=none;html=1;verticalAlign=middle;whiteSpace=wrap;rounded=0;" parent="_tiB8tEmEpVmkrLslOVU-1" vertex="1">
          <mxGeometry x="87" y="1400" width="60" height="30" as="geometry" />
        </mxCell>
        <mxCell id="mmcW-JgOqtuN_uXGNvST-10" value="" style="shape=table;startSize=0;container=1;collapsible=0;childLayout=tableLayout;" parent="_tiB8tEmEpVmkrLslOVU-1" vertex="1">
          <mxGeometry x="80" y="1430" width="395" height="40" as="geometry" />
        </mxCell>
        <mxCell id="mmcW-JgOqtuN_uXGNvST-11" value="" style="shape=tableRow;horizontal=0;startSize=0;swimlaneHead=0;swimlaneBody=0;strokeColor=inherit;top=0;left=0;bottom=0;right=0;collapsible=0;dropTarget=0;fillColor=none;points=[[0,0.5],[1,0.5]];portConstraint=eastwest;" parent="mmcW-JgOqtuN_uXGNvST-10" vertex="1">
          <mxGeometry width="395" height="40" as="geometry" />
        </mxCell>
        <mxCell id="mmcW-JgOqtuN_uXGNvST-12" value="&lt;u&gt;St_id&lt;/u&gt;" style="shape=partialRectangle;html=1;whiteSpace=wrap;connectable=0;strokeColor=inherit;overflow=hidden;fillColor=none;top=0;left=0;bottom=0;right=0;pointerEvents=1;" parent="mmcW-JgOqtuN_uXGNvST-11" vertex="1">
          <mxGeometry width="60" height="40" as="geometry">
            <mxRectangle width="60" height="40" as="alternateBounds" />
          </mxGeometry>
        </mxCell>
        <mxCell id="mmcW-JgOqtuN_uXGNvST-13" value="&lt;u&gt;C_code&lt;/u&gt;" style="shape=partialRectangle;html=1;whiteSpace=wrap;connectable=0;strokeColor=inherit;overflow=hidden;fillColor=none;top=0;left=0;bottom=0;right=0;pointerEvents=1;" parent="mmcW-JgOqtuN_uXGNvST-11" vertex="1">
          <mxGeometry x="60" width="60" height="40" as="geometry">
            <mxRectangle width="60" height="40" as="alternateBounds" />
          </mxGeometry>
        </mxCell>
        <mxCell id="mmcW-JgOqtuN_uXGNvST-16" value="Sem" style="shape=partialRectangle;html=1;whiteSpace=wrap;connectable=0;strokeColor=inherit;overflow=hidden;fillColor=none;top=0;left=0;bottom=0;right=0;pointerEvents=1;" parent="mmcW-JgOqtuN_uXGNvST-11" vertex="1">
          <mxGeometry x="120" width="60" height="40" as="geometry">
            <mxRectangle width="60" height="40" as="alternateBounds" />
          </mxGeometry>
        </mxCell>
        <mxCell id="8j82z1IWAl4MmmDvAMhX-0" value="Level" style="shape=partialRectangle;html=1;whiteSpace=wrap;connectable=0;strokeColor=inherit;overflow=hidden;fillColor=none;top=0;left=0;bottom=0;right=0;pointerEvents=1;" parent="mmcW-JgOqtuN_uXGNvST-11" vertex="1">
          <mxGeometry x="180" width="60" height="40" as="geometry">
            <mxRectangle width="60" height="40" as="alternateBounds" />
          </mxGeometry>
        </mxCell>
        <mxCell id="mmcW-JgOqtuN_uXGNvST-15" value="Academic_yr" style="shape=partialRectangle;html=1;whiteSpace=wrap;connectable=0;strokeColor=inherit;overflow=hidden;fillColor=none;top=0;left=0;bottom=0;right=0;pointerEvents=1;" parent="mmcW-JgOqtuN_uXGNvST-11" vertex="1">
          <mxGeometry x="240" width="85" height="40" as="geometry">
            <mxRectangle width="85" height="40" as="alternateBounds" />
          </mxGeometry>
        </mxCell>
        <mxCell id="mmcW-JgOqtuN_uXGNvST-14" value="Status" style="shape=partialRectangle;html=1;whiteSpace=wrap;connectable=0;strokeColor=inherit;overflow=hidden;fillColor=none;top=0;left=0;bottom=0;right=0;pointerEvents=1;" parent="mmcW-JgOqtuN_uXGNvST-11" vertex="1">
          <mxGeometry x="325" width="70" height="40" as="geometry">
            <mxRectangle width="70" height="40" as="alternateBounds" />
          </mxGeometry>
        </mxCell>
        <mxCell id="mmcW-JgOqtuN_uXGNvST-29" value="SESSION" style="text;html=1;align=left;verticalAlign=middle;resizable=0;points=[];autosize=1;strokeColor=none;fillColor=none;" parent="_tiB8tEmEpVmkrLslOVU-1" vertex="1">
          <mxGeometry x="80" y="710" width="80" height="30" as="geometry" />
        </mxCell>
        <mxCell id="mmcW-JgOqtuN_uXGNvST-30" value="" style="shape=table;startSize=0;container=1;collapsible=0;childLayout=tableLayout;" parent="_tiB8tEmEpVmkrLslOVU-1" vertex="1">
          <mxGeometry x="80" y="740" width="390" height="40" as="geometry" />
        </mxCell>
        <mxCell id="mmcW-JgOqtuN_uXGNvST-31" value="" style="shape=tableRow;horizontal=0;startSize=0;swimlaneHead=0;swimlaneBody=0;strokeColor=inherit;top=0;left=0;bottom=0;right=0;collapsible=0;dropTarget=0;fillColor=none;points=[[0,0.5],[1,0.5]];portConstraint=eastwest;" parent="mmcW-JgOqtuN_uXGNvST-30" vertex="1">
          <mxGeometry width="390" height="40" as="geometry" />
        </mxCell>
        <mxCell id="mmcW-JgOqtuN_uXGNvST-32" value="Session_id" style="shape=partialRectangle;html=1;whiteSpace=wrap;connectable=0;strokeColor=inherit;overflow=hidden;fillColor=none;top=0;left=0;bottom=0;right=0;pointerEvents=1;fontStyle=4" parent="mmcW-JgOqtuN_uXGNvST-31" vertex="1">
          <mxGeometry width="80" height="40" as="geometry">
            <mxRectangle width="80" height="40" as="alternateBounds" />
          </mxGeometry>
        </mxCell>
        <mxCell id="mmcW-JgOqtuN_uXGNvST-33" value="Type" style="shape=partialRectangle;html=1;whiteSpace=wrap;connectable=0;strokeColor=inherit;overflow=hidden;fillColor=none;top=0;left=0;bottom=0;right=0;pointerEvents=1;" parent="mmcW-JgOqtuN_uXGNvST-31" vertex="1">
          <mxGeometry x="80" width="70" height="40" as="geometry">
            <mxRectangle width="70" height="40" as="alternateBounds" />
          </mxGeometry>
        </mxCell>
        <mxCell id="mmcW-JgOqtuN_uXGNvST-34" value="Date" style="shape=partialRectangle;html=1;whiteSpace=wrap;connectable=0;strokeColor=inherit;overflow=hidden;fillColor=none;top=0;left=0;bottom=0;right=0;pointerEvents=1;" parent="mmcW-JgOqtuN_uXGNvST-31" vertex="1">
          <mxGeometry x="150" width="80" height="40" as="geometry">
            <mxRectangle width="80" height="40" as="alternateBounds" />
          </mxGeometry>
        </mxCell>
        <mxCell id="mmcW-JgOqtuN_uXGNvST-35" value="C_code" style="shape=partialRectangle;html=1;whiteSpace=wrap;connectable=0;strokeColor=inherit;overflow=hidden;fillColor=none;top=0;left=0;bottom=0;right=0;pointerEvents=1;" parent="mmcW-JgOqtuN_uXGNvST-31" vertex="1">
          <mxGeometry x="230" width="80" height="40" as="geometry">
            <mxRectangle width="80" height="40" as="alternateBounds" />
          </mxGeometry>
        </mxCell>
        <mxCell id="1ehpFSzwAOa-Z3eM5got-0" value="Week_no" style="shape=partialRectangle;html=1;whiteSpace=wrap;connectable=0;strokeColor=inherit;overflow=hidden;fillColor=none;top=0;left=0;bottom=0;right=0;pointerEvents=1;" vertex="1" parent="mmcW-JgOqtuN_uXGNvST-31">
          <mxGeometry x="310" width="80" height="40" as="geometry">
            <mxRectangle width="80" height="40" as="alternateBounds" />
          </mxGeometry>
        </mxCell>
        <mxCell id="mmcW-JgOqtuN_uXGNvST-61" style="edgeStyle=orthogonalEdgeStyle;rounded=0;orthogonalLoop=1;jettySize=auto;html=1;jumpStyle=arc;exitX=0.912;exitY=1.014;exitDx=0;exitDy=0;exitPerimeter=0;entryX=0.097;entryY=0.939;entryDx=0;entryDy=0;entryPerimeter=0;" parent="_tiB8tEmEpVmkrLslOVU-1" edge="1">
          <mxGeometry relative="1" as="geometry">
            <mxPoint x="142.07999999999998" y="80" as="targetPoint" />
            <mxPoint x="408.32000000000005" y="480.00000000000006" as="sourcePoint" />
            <Array as="points">
              <mxPoint x="410" y="480.44" />
              <mxPoint x="410" y="512.44" />
              <mxPoint x="480" y="512.44" />
              <mxPoint x="480" y="399.44" />
              <mxPoint x="50" y="399.44" />
              <mxPoint x="50" y="142.44" />
              <mxPoint x="142" y="142.44" />
            </Array>
          </mxGeometry>
        </mxCell>
        <mxCell id="mmcW-JgOqtuN_uXGNvST-64" style="edgeStyle=orthogonalEdgeStyle;rounded=0;orthogonalLoop=1;jettySize=auto;html=1;entryX=0.136;entryY=1.092;entryDx=0;entryDy=0;entryPerimeter=0;" parent="_tiB8tEmEpVmkrLslOVU-1" edge="1">
          <mxGeometry relative="1" as="geometry">
            <mxPoint x="100.17000000000004" y="590.0000000000001" as="targetPoint" />
            <mxPoint x="340" y="780" as="sourcePoint" />
            <Array as="points">
              <mxPoint x="340" y="800" />
              <mxPoint x="490" y="800" />
              <mxPoint x="490" y="666" />
              <mxPoint x="100" y="666" />
            </Array>
          </mxGeometry>
        </mxCell>
        <mxCell id="LxeMRQMI_kEU0yblfrC4-0" style="edgeStyle=orthogonalEdgeStyle;rounded=0;orthogonalLoop=1;jettySize=auto;html=1;entryX=0.025;entryY=1.062;entryDx=0;entryDy=0;entryPerimeter=0;" parent="_tiB8tEmEpVmkrLslOVU-1" edge="1">
          <mxGeometry relative="1" as="geometry">
            <mxPoint x="89.25" y="590.48" as="targetPoint" />
            <mxPoint x="170" y="1470" as="sourcePoint" />
            <Array as="points">
              <mxPoint x="170" y="1508" />
              <mxPoint x="40" y="1508" />
              <mxPoint x="40" y="668" />
              <mxPoint x="90" y="668" />
              <mxPoint x="90" y="590" />
              <mxPoint x="89" y="590" />
            </Array>
          </mxGeometry>
        </mxCell>
        <mxCell id="RA6WH5sdtOcbIVI1_QBT-0" style="edgeStyle=orthogonalEdgeStyle;rounded=0;orthogonalLoop=1;jettySize=auto;html=1;entryX=0.095;entryY=1.031;entryDx=0;entryDy=0;entryPerimeter=0;" parent="_tiB8tEmEpVmkrLslOVU-1" target="mmcW-JgOqtuN_uXGNvST-31" edge="1">
          <mxGeometry relative="1" as="geometry">
            <mxPoint x="110" y="790" as="targetPoint" />
            <mxPoint x="210" y="1060" as="sourcePoint" />
            <Array as="points">
              <mxPoint x="210" y="1100" />
              <mxPoint x="60" y="1100" />
              <mxPoint x="60" y="800" />
              <mxPoint x="110" y="800" />
            </Array>
          </mxGeometry>
        </mxCell>
        <mxCell id="RA6WH5sdtOcbIVI1_QBT-2" style="edgeStyle=orthogonalEdgeStyle;rounded=0;orthogonalLoop=1;jettySize=auto;html=1;entryX=0.063;entryY=0.975;entryDx=0;entryDy=0;entryPerimeter=0;jumpStyle=arc;" parent="_tiB8tEmEpVmkrLslOVU-1" edge="1">
          <mxGeometry relative="1" as="geometry">
            <mxPoint x="130.32" y="80" as="targetPoint" />
            <mxPoint x="120" y="1060" as="sourcePoint" />
            <Array as="points">
              <mxPoint x="120" y="1081" />
              <mxPoint x="30" y="1081" />
              <mxPoint x="30" y="131" />
              <mxPoint x="130" y="131" />
            </Array>
          </mxGeometry>
        </mxCell>
        <mxCell id="RA6WH5sdtOcbIVI1_QBT-5" style="edgeStyle=orthogonalEdgeStyle;rounded=0;orthogonalLoop=1;jettySize=auto;html=1;entryX=0.034;entryY=0.925;entryDx=0;entryDy=0;entryPerimeter=0;" parent="_tiB8tEmEpVmkrLslOVU-1" edge="1">
          <mxGeometry relative="1" as="geometry">
            <mxPoint x="100.7399999999999" y="1210" as="targetPoint" />
            <mxPoint x="120" y="1353" as="sourcePoint" />
            <Array as="points">
              <mxPoint x="120" y="1353" />
              <mxPoint x="120" y="1373" />
              <mxPoint x="60" y="1373" />
              <mxPoint x="60" y="1243" />
              <mxPoint x="101" y="1243" />
            </Array>
          </mxGeometry>
        </mxCell>
        <mxCell id="RA6WH5sdtOcbIVI1_QBT-6" style="edgeStyle=orthogonalEdgeStyle;rounded=0;orthogonalLoop=1;jettySize=auto;html=1;entryX=0.031;entryY=1.064;entryDx=0;entryDy=0;entryPerimeter=0;jumpStyle=arc;" parent="_tiB8tEmEpVmkrLslOVU-1" edge="1">
          <mxGeometry relative="1" as="geometry">
            <mxPoint x="119.83999999999997" y="80" as="targetPoint" />
            <mxPoint x="130" y="1470" as="sourcePoint" />
            <Array as="points">
              <mxPoint x="130" y="1487" />
              <mxPoint x="20" y="1487" />
              <mxPoint x="20" y="117" />
              <mxPoint x="120" y="117" />
            </Array>
          </mxGeometry>
        </mxCell>
        <mxCell id="RA6WH5sdtOcbIVI1_QBT-7" style="edgeStyle=orthogonalEdgeStyle;rounded=0;orthogonalLoop=1;jettySize=auto;html=1;entryX=0.081;entryY=0.969;entryDx=0;entryDy=0;entryPerimeter=0;jumpStyle=arc;" parent="_tiB8tEmEpVmkrLslOVU-1" target="uJqX0hBABi6My97VCVzp-21" edge="1">
          <mxGeometry relative="1" as="geometry">
            <mxPoint x="130" y="1250" as="targetPoint" />
            <Array as="points">
              <mxPoint x="340" y="610" />
              <mxPoint x="720" y="610" />
              <mxPoint x="720" y="1240" />
              <mxPoint x="129" y="1240" />
            </Array>
            <mxPoint x="340" y="590" as="sourcePoint" />
          </mxGeometry>
        </mxCell>
        <mxCell id="iK_z4xqluITd690mn7Fc-1" value="St_id" style="shape=partialRectangle;html=1;whiteSpace=wrap;connectable=0;strokeColor=inherit;overflow=hidden;fillColor=none;top=0;left=0;bottom=0;right=0;pointerEvents=1;fontStyle=4" parent="_tiB8tEmEpVmkrLslOVU-1" vertex="1">
          <mxGeometry x="80" y="1020" width="80" height="40" as="geometry">
            <mxRectangle width="80" height="40" as="alternateBounds" />
          </mxGeometry>
        </mxCell>
        <mxCell id="iK_z4xqluITd690mn7Fc-2" value="&lt;u&gt;Session_id&lt;/u&gt;" style="shape=partialRectangle;html=1;whiteSpace=wrap;connectable=0;strokeColor=inherit;overflow=hidden;fillColor=none;top=0;left=0;bottom=0;right=0;pointerEvents=1;" parent="_tiB8tEmEpVmkrLslOVU-1" vertex="1">
          <mxGeometry x="160" y="1020" width="80" height="40" as="geometry">
            <mxRectangle width="80" height="40" as="alternateBounds" />
          </mxGeometry>
        </mxCell>
        <mxCell id="iK_z4xqluITd690mn7Fc-3" value="Status" style="shape=partialRectangle;html=1;whiteSpace=wrap;connectable=0;strokeColor=inherit;overflow=hidden;fillColor=none;top=0;left=0;bottom=0;right=0;pointerEvents=1;" parent="_tiB8tEmEpVmkrLslOVU-1" vertex="1">
          <mxGeometry x="237.5" y="1020" width="80" height="40" as="geometry">
            <mxRectangle width="80" height="40" as="alternateBounds" />
          </mxGeometry>
        </mxCell>
        <mxCell id="HOm5d55l4YF25VSeq4_g-5" value="No" style="shape=partialRectangle;html=1;whiteSpace=wrap;connectable=0;strokeColor=inherit;overflow=hidden;fillColor=none;top=0;left=0;bottom=0;right=0;pointerEvents=1;" parent="_tiB8tEmEpVmkrLslOVU-1" vertex="1">
          <mxGeometry x="180" y="40" width="57" height="40" as="geometry">
            <mxRectangle width="57" height="40" as="alternateBounds" />
          </mxGeometry>
        </mxCell>
        <mxCell id="HOm5d55l4YF25VSeq4_g-8" value="S_name" style="shape=partialRectangle;html=1;whiteSpace=wrap;connectable=0;strokeColor=inherit;overflow=hidden;fillColor=none;top=0;left=0;bottom=0;right=0;pointerEvents=1;" parent="_tiB8tEmEpVmkrLslOVU-1" vertex="1">
          <mxGeometry x="367" y="40" width="59" height="40" as="geometry">
            <mxRectangle width="59" height="40" as="alternateBounds" />
          </mxGeometry>
        </mxCell>
        <mxCell id="HOm5d55l4YF25VSeq4_g-9" value="Email" style="shape=partialRectangle;html=1;whiteSpace=wrap;connectable=0;strokeColor=inherit;overflow=hidden;fillColor=none;top=0;left=0;bottom=0;right=0;pointerEvents=1;" parent="_tiB8tEmEpVmkrLslOVU-1" vertex="1">
          <mxGeometry x="440" y="40" width="69" height="40" as="geometry">
            <mxRectangle width="69" height="40" as="alternateBounds" />
          </mxGeometry>
        </mxCell>
        <mxCell id="HOm5d55l4YF25VSeq4_g-10" value="Nic" style="shape=partialRectangle;html=1;whiteSpace=wrap;connectable=0;strokeColor=inherit;overflow=hidden;fillColor=none;top=0;left=0;bottom=0;right=0;pointerEvents=1;" parent="_tiB8tEmEpVmkrLslOVU-1" vertex="1">
          <mxGeometry x="500" y="40" width="59" height="40" as="geometry">
            <mxRectangle width="59" height="40" as="alternateBounds" />
          </mxGeometry>
        </mxCell>
        <mxCell id="HOm5d55l4YF25VSeq4_g-11" value="Dpt_name" style="shape=partialRectangle;html=1;whiteSpace=wrap;connectable=0;strokeColor=inherit;overflow=hidden;fillColor=none;top=0;left=0;bottom=0;right=0;pointerEvents=1;" parent="_tiB8tEmEpVmkrLslOVU-1" vertex="1">
          <mxGeometry x="559" y="40" width="76" height="40" as="geometry">
            <mxRectangle width="76" height="40" as="alternateBounds" />
          </mxGeometry>
        </mxCell>
        <mxCell id="HOm5d55l4YF25VSeq4_g-12" value="Civit Status" style="shape=partialRectangle;html=1;whiteSpace=wrap;connectable=0;strokeColor=inherit;overflow=hidden;fillColor=none;top=0;left=0;bottom=0;right=0;pointerEvents=1;" parent="_tiB8tEmEpVmkrLslOVU-1" vertex="1">
          <mxGeometry x="640" y="40" width="71" height="40" as="geometry">
            <mxRectangle width="91" height="40" as="alternateBounds" />
          </mxGeometry>
        </mxCell>
        <mxCell id="HOm5d55l4YF25VSeq4_g-18" value="No" style="shape=partialRectangle;html=1;whiteSpace=wrap;connectable=0;strokeColor=inherit;overflow=hidden;fillColor=none;top=0;left=0;bottom=0;right=0;pointerEvents=1;" parent="_tiB8tEmEpVmkrLslOVU-1" vertex="1">
          <mxGeometry x="150" y="1169" width="60" height="40" as="geometry">
            <mxRectangle width="60" height="40" as="alternateBounds" />
          </mxGeometry>
        </mxCell>
        <mxCell id="HOm5d55l4YF25VSeq4_g-19" value="City" style="shape=partialRectangle;html=1;whiteSpace=wrap;connectable=0;strokeColor=inherit;overflow=hidden;fillColor=none;top=0;left=0;bottom=0;right=0;pointerEvents=1;" parent="_tiB8tEmEpVmkrLslOVU-1" vertex="1">
          <mxGeometry x="200" y="1169" width="60" height="40" as="geometry">
            <mxRectangle width="60" height="40" as="alternateBounds" />
          </mxGeometry>
        </mxCell>
        <mxCell id="HOm5d55l4YF25VSeq4_g-20" value="Street" style="shape=partialRectangle;html=1;whiteSpace=wrap;connectable=0;strokeColor=inherit;overflow=hidden;fillColor=none;top=0;left=0;bottom=0;right=0;pointerEvents=1;" parent="_tiB8tEmEpVmkrLslOVU-1" vertex="1">
          <mxGeometry x="260" y="1169" width="70" height="40" as="geometry">
            <mxRectangle width="60" height="40" as="alternateBounds" />
          </mxGeometry>
        </mxCell>
        <mxCell id="HOm5d55l4YF25VSeq4_g-21" value="L_name" style="shape=partialRectangle;html=1;whiteSpace=wrap;connectable=0;strokeColor=inherit;overflow=hidden;fillColor=none;top=0;left=0;bottom=0;right=0;pointerEvents=1;" parent="_tiB8tEmEpVmkrLslOVU-1" vertex="1">
          <mxGeometry x="340" y="1169" width="60" height="40" as="geometry">
            <mxRectangle width="60" height="40" as="alternateBounds" />
          </mxGeometry>
        </mxCell>
        <mxCell id="HOm5d55l4YF25VSeq4_g-22" value="Dpt_name" style="shape=partialRectangle;html=1;whiteSpace=wrap;connectable=0;strokeColor=inherit;overflow=hidden;fillColor=none;top=0;left=0;bottom=0;right=0;pointerEvents=1;" parent="_tiB8tEmEpVmkrLslOVU-1" vertex="1">
          <mxGeometry x="400" y="1170" width="80" height="40" as="geometry">
            <mxRectangle width="80" height="40" as="alternateBounds" />
          </mxGeometry>
        </mxCell>
        <mxCell id="HOm5d55l4YF25VSeq4_g-23" value="Nic" style="shape=partialRectangle;html=1;whiteSpace=wrap;connectable=0;strokeColor=inherit;overflow=hidden;fillColor=none;top=0;left=0;bottom=0;right=0;pointerEvents=1;" parent="_tiB8tEmEpVmkrLslOVU-1" vertex="1">
          <mxGeometry x="480" y="1170" width="50" height="40" as="geometry">
            <mxRectangle width="50" height="40" as="alternateBounds" />
          </mxGeometry>
        </mxCell>
        <mxCell id="HOm5d55l4YF25VSeq4_g-24" value="Education_lvl" style="shape=partialRectangle;html=1;whiteSpace=wrap;connectable=0;strokeColor=inherit;overflow=hidden;fillColor=none;top=0;left=0;bottom=0;right=0;pointerEvents=1;" parent="_tiB8tEmEpVmkrLslOVU-1" vertex="1">
          <mxGeometry x="530" y="1169" width="110" height="40" as="geometry">
            <mxRectangle width="110" height="40" as="alternateBounds" />
          </mxGeometry>
        </mxCell>
        <mxCell id="HOm5d55l4YF25VSeq4_g-25" value="Email" style="shape=partialRectangle;html=1;whiteSpace=wrap;connectable=0;strokeColor=inherit;overflow=hidden;fillColor=none;top=0;left=0;bottom=0;right=0;pointerEvents=1;" parent="_tiB8tEmEpVmkrLslOVU-1" vertex="1">
          <mxGeometry x="630" y="1170" width="60" height="40" as="geometry">
            <mxRectangle width="60" height="40" as="alternateBounds" />
          </mxGeometry>
        </mxCell>
        <mxCell id="J3m7LMkaWLujBNEeEa09-0" value="ADMIN" style="text;strokeColor=none;align=center;fillColor=none;html=1;verticalAlign=middle;whiteSpace=wrap;rounded=0;" parent="_tiB8tEmEpVmkrLslOVU-1" vertex="1">
          <mxGeometry x="64" y="1540" width="76" height="30" as="geometry" />
        </mxCell>
        <mxCell id="J3m7LMkaWLujBNEeEa09-2" value="DEAN" style="text;strokeColor=none;align=center;fillColor=none;html=1;verticalAlign=middle;whiteSpace=wrap;rounded=0;" parent="_tiB8tEmEpVmkrLslOVU-1" vertex="1">
          <mxGeometry x="610" y="1570" width="60" height="30" as="geometry" />
        </mxCell>
        <mxCell id="J3m7LMkaWLujBNEeEa09-3" value="TECH_OFFICER" style="text;strokeColor=none;align=center;fillColor=none;html=1;verticalAlign=middle;whiteSpace=wrap;rounded=0;" parent="_tiB8tEmEpVmkrLslOVU-1" vertex="1">
          <mxGeometry x="100" y="1780" width="60" height="30" as="geometry" />
        </mxCell>
        <mxCell id="J3m7LMkaWLujBNEeEa09-4" value="" style="shape=table;startSize=0;container=1;collapsible=0;childLayout=tableLayout;" parent="_tiB8tEmEpVmkrLslOVU-1" vertex="1">
          <mxGeometry x="80" y="1580" width="615" height="40" as="geometry" />
        </mxCell>
        <mxCell id="J3m7LMkaWLujBNEeEa09-5" value="" style="shape=tableRow;horizontal=0;startSize=0;swimlaneHead=0;swimlaneBody=0;strokeColor=inherit;top=0;left=0;bottom=0;right=0;collapsible=0;dropTarget=0;fillColor=none;points=[[0,0.5],[1,0.5]];portConstraint=eastwest;" parent="J3m7LMkaWLujBNEeEa09-4" vertex="1">
          <mxGeometry width="615" height="40" as="geometry" />
        </mxCell>
        <mxCell id="J3m7LMkaWLujBNEeEa09-6" value="&lt;u&gt;Admin_id&lt;/u&gt;" style="shape=partialRectangle;html=1;whiteSpace=wrap;connectable=0;strokeColor=inherit;overflow=hidden;fillColor=none;top=0;left=0;bottom=0;right=0;pointerEvents=1;" parent="J3m7LMkaWLujBNEeEa09-5" vertex="1">
          <mxGeometry width="77" height="40" as="geometry">
            <mxRectangle width="77" height="40" as="alternateBounds" />
          </mxGeometry>
        </mxCell>
        <mxCell id="J3m7LMkaWLujBNEeEa09-7" value="No" style="shape=partialRectangle;html=1;whiteSpace=wrap;connectable=0;strokeColor=inherit;overflow=hidden;fillColor=none;top=0;left=0;bottom=0;right=0;pointerEvents=1;" parent="J3m7LMkaWLujBNEeEa09-5" vertex="1">
          <mxGeometry x="77" width="56" height="40" as="geometry">
            <mxRectangle width="56" height="40" as="alternateBounds" />
          </mxGeometry>
        </mxCell>
        <mxCell id="J3m7LMkaWLujBNEeEa09-8" value="City" style="shape=partialRectangle;html=1;whiteSpace=wrap;connectable=0;strokeColor=inherit;overflow=hidden;fillColor=none;top=0;left=0;bottom=0;right=0;pointerEvents=1;" parent="J3m7LMkaWLujBNEeEa09-5" vertex="1">
          <mxGeometry x="133" width="55" height="40" as="geometry">
            <mxRectangle width="55" height="40" as="alternateBounds" />
          </mxGeometry>
        </mxCell>
        <mxCell id="J3m7LMkaWLujBNEeEa09-9" value="Street" style="shape=partialRectangle;html=1;whiteSpace=wrap;connectable=0;strokeColor=inherit;overflow=hidden;fillColor=none;top=0;left=0;bottom=0;right=0;pointerEvents=1;" parent="J3m7LMkaWLujBNEeEa09-5" vertex="1">
          <mxGeometry x="188" width="55" height="40" as="geometry">
            <mxRectangle width="55" height="40" as="alternateBounds" />
          </mxGeometry>
        </mxCell>
        <mxCell id="J3m7LMkaWLujBNEeEa09-10" value="A_name" style="shape=partialRectangle;html=1;whiteSpace=wrap;connectable=0;strokeColor=inherit;overflow=hidden;fillColor=none;top=0;left=0;bottom=0;right=0;pointerEvents=1;" parent="J3m7LMkaWLujBNEeEa09-5" vertex="1">
          <mxGeometry x="243" width="57" height="40" as="geometry">
            <mxRectangle width="57" height="40" as="alternateBounds" />
          </mxGeometry>
        </mxCell>
        <mxCell id="J3m7LMkaWLujBNEeEa09-13" value="A_nic" style="shape=partialRectangle;html=1;whiteSpace=wrap;connectable=0;strokeColor=inherit;overflow=hidden;fillColor=none;top=0;left=0;bottom=0;right=0;pointerEvents=1;" parent="J3m7LMkaWLujBNEeEa09-5" vertex="1">
          <mxGeometry x="300" width="55" height="40" as="geometry">
            <mxRectangle width="55" height="40" as="alternateBounds" />
          </mxGeometry>
        </mxCell>
        <mxCell id="J3m7LMkaWLujBNEeEa09-14" value="Phone" style="shape=partialRectangle;html=1;whiteSpace=wrap;connectable=0;strokeColor=inherit;overflow=hidden;fillColor=none;top=0;left=0;bottom=0;right=0;pointerEvents=1;" parent="J3m7LMkaWLujBNEeEa09-5" vertex="1">
          <mxGeometry x="355" width="55" height="40" as="geometry">
            <mxRectangle width="55" height="40" as="alternateBounds" />
          </mxGeometry>
        </mxCell>
        <mxCell id="J3m7LMkaWLujBNEeEa09-11" value="Email" style="shape=partialRectangle;html=1;whiteSpace=wrap;connectable=0;strokeColor=inherit;overflow=hidden;fillColor=none;top=0;left=0;bottom=0;right=0;pointerEvents=1;" parent="J3m7LMkaWLujBNEeEa09-5" vertex="1">
          <mxGeometry x="410" width="55" height="40" as="geometry">
            <mxRectangle width="55" height="40" as="alternateBounds" />
          </mxGeometry>
        </mxCell>
        <mxCell id="J3m7LMkaWLujBNEeEa09-12" value="Civil_status" style="shape=partialRectangle;html=1;whiteSpace=wrap;connectable=0;strokeColor=inherit;overflow=hidden;fillColor=none;top=0;left=0;bottom=0;right=0;pointerEvents=1;" parent="J3m7LMkaWLujBNEeEa09-5" vertex="1">
          <mxGeometry x="465" width="75" height="40" as="geometry">
            <mxRectangle width="75" height="40" as="alternateBounds" />
          </mxGeometry>
        </mxCell>
        <mxCell id="J3m7LMkaWLujBNEeEa09-15" value="Dpt_name" style="shape=partialRectangle;html=1;whiteSpace=wrap;connectable=0;strokeColor=inherit;overflow=hidden;fillColor=none;top=0;left=0;bottom=0;right=0;pointerEvents=1;" parent="J3m7LMkaWLujBNEeEa09-5" vertex="1">
          <mxGeometry x="540" width="75" height="40" as="geometry">
            <mxRectangle width="75" height="40" as="alternateBounds" />
          </mxGeometry>
        </mxCell>
        <mxCell id="J3m7LMkaWLujBNEeEa09-16" value="DEAN" style="text;strokeColor=none;align=center;fillColor=none;html=1;verticalAlign=middle;whiteSpace=wrap;rounded=0;" parent="_tiB8tEmEpVmkrLslOVU-1" vertex="1">
          <mxGeometry x="72" y="1660" width="60" height="30" as="geometry" />
        </mxCell>
        <mxCell id="J3m7LMkaWLujBNEeEa09-17" value="" style="shape=table;startSize=0;container=1;collapsible=0;childLayout=tableLayout;" parent="_tiB8tEmEpVmkrLslOVU-1" vertex="1">
          <mxGeometry x="80" y="1700" width="560" height="40" as="geometry" />
        </mxCell>
        <mxCell id="J3m7LMkaWLujBNEeEa09-18" value="" style="shape=tableRow;horizontal=0;startSize=0;swimlaneHead=0;swimlaneBody=0;strokeColor=inherit;top=0;left=0;bottom=0;right=0;collapsible=0;dropTarget=0;fillColor=none;points=[[0,0.5],[1,0.5]];portConstraint=eastwest;" parent="J3m7LMkaWLujBNEeEa09-17" vertex="1">
          <mxGeometry width="560" height="40" as="geometry" />
        </mxCell>
        <mxCell id="J3m7LMkaWLujBNEeEa09-19" value="&lt;u&gt;Dean_id&lt;/u&gt;" style="shape=partialRectangle;html=1;whiteSpace=wrap;connectable=0;strokeColor=inherit;overflow=hidden;fillColor=none;top=0;left=0;bottom=0;right=0;pointerEvents=1;" parent="J3m7LMkaWLujBNEeEa09-18" vertex="1">
          <mxGeometry width="60" height="40" as="geometry">
            <mxRectangle width="60" height="40" as="alternateBounds" />
          </mxGeometry>
        </mxCell>
        <mxCell id="J3m7LMkaWLujBNEeEa09-20" value="No" style="shape=partialRectangle;html=1;whiteSpace=wrap;connectable=0;strokeColor=inherit;overflow=hidden;fillColor=none;top=0;left=0;bottom=0;right=0;pointerEvents=1;" parent="J3m7LMkaWLujBNEeEa09-18" vertex="1">
          <mxGeometry x="60" width="60" height="40" as="geometry">
            <mxRectangle width="60" height="40" as="alternateBounds" />
          </mxGeometry>
        </mxCell>
        <mxCell id="J3m7LMkaWLujBNEeEa09-26" value="City" style="shape=partialRectangle;html=1;whiteSpace=wrap;connectable=0;strokeColor=inherit;overflow=hidden;fillColor=none;top=0;left=0;bottom=0;right=0;pointerEvents=1;" parent="J3m7LMkaWLujBNEeEa09-18" vertex="1">
          <mxGeometry x="120" width="60" height="40" as="geometry">
            <mxRectangle width="60" height="40" as="alternateBounds" />
          </mxGeometry>
        </mxCell>
        <mxCell id="J3m7LMkaWLujBNEeEa09-25" value="Street" style="shape=partialRectangle;html=1;whiteSpace=wrap;connectable=0;strokeColor=inherit;overflow=hidden;fillColor=none;top=0;left=0;bottom=0;right=0;pointerEvents=1;" parent="J3m7LMkaWLujBNEeEa09-18" vertex="1">
          <mxGeometry x="180" width="60" height="40" as="geometry">
            <mxRectangle width="60" height="40" as="alternateBounds" />
          </mxGeometry>
        </mxCell>
        <mxCell id="J3m7LMkaWLujBNEeEa09-27" value="D_name" style="shape=partialRectangle;html=1;whiteSpace=wrap;connectable=0;strokeColor=inherit;overflow=hidden;fillColor=none;top=0;left=0;bottom=0;right=0;pointerEvents=1;" parent="J3m7LMkaWLujBNEeEa09-18" vertex="1">
          <mxGeometry x="240" width="60" height="40" as="geometry">
            <mxRectangle width="60" height="40" as="alternateBounds" />
          </mxGeometry>
        </mxCell>
        <mxCell id="J3m7LMkaWLujBNEeEa09-24" value="Phone" style="shape=partialRectangle;html=1;whiteSpace=wrap;connectable=0;strokeColor=inherit;overflow=hidden;fillColor=none;top=0;left=0;bottom=0;right=0;pointerEvents=1;" parent="J3m7LMkaWLujBNEeEa09-18" vertex="1">
          <mxGeometry x="300" width="60" height="40" as="geometry">
            <mxRectangle width="60" height="40" as="alternateBounds" />
          </mxGeometry>
        </mxCell>
        <mxCell id="J3m7LMkaWLujBNEeEa09-23" value="D_nic" style="shape=partialRectangle;html=1;whiteSpace=wrap;connectable=0;strokeColor=inherit;overflow=hidden;fillColor=none;top=0;left=0;bottom=0;right=0;pointerEvents=1;" parent="J3m7LMkaWLujBNEeEa09-18" vertex="1">
          <mxGeometry x="360" width="60" height="40" as="geometry">
            <mxRectangle width="60" height="40" as="alternateBounds" />
          </mxGeometry>
        </mxCell>
        <mxCell id="J3m7LMkaWLujBNEeEa09-22" value="Email" style="shape=partialRectangle;html=1;whiteSpace=wrap;connectable=0;strokeColor=inherit;overflow=hidden;fillColor=none;top=0;left=0;bottom=0;right=0;pointerEvents=1;" parent="J3m7LMkaWLujBNEeEa09-18" vertex="1">
          <mxGeometry x="420" width="60" height="40" as="geometry">
            <mxRectangle width="60" height="40" as="alternateBounds" />
          </mxGeometry>
        </mxCell>
        <mxCell id="J3m7LMkaWLujBNEeEa09-21" value="Civil_status" style="shape=partialRectangle;html=1;whiteSpace=wrap;connectable=0;strokeColor=inherit;overflow=hidden;fillColor=none;top=0;left=0;bottom=0;right=0;pointerEvents=1;" parent="J3m7LMkaWLujBNEeEa09-18" vertex="1">
          <mxGeometry x="480" width="80" height="40" as="geometry">
            <mxRectangle width="80" height="40" as="alternateBounds" />
          </mxGeometry>
        </mxCell>
        <mxCell id="J3m7LMkaWLujBNEeEa09-32" value="" style="shape=table;startSize=0;container=1;collapsible=0;childLayout=tableLayout;" parent="_tiB8tEmEpVmkrLslOVU-1" vertex="1">
          <mxGeometry x="80" y="1820" width="500" height="40" as="geometry" />
        </mxCell>
        <mxCell id="J3m7LMkaWLujBNEeEa09-33" value="" style="shape=tableRow;horizontal=0;startSize=0;swimlaneHead=0;swimlaneBody=0;strokeColor=inherit;top=0;left=0;bottom=0;right=0;collapsible=0;dropTarget=0;fillColor=none;points=[[0,0.5],[1,0.5]];portConstraint=eastwest;" parent="J3m7LMkaWLujBNEeEa09-32" vertex="1">
          <mxGeometry width="500" height="40" as="geometry" />
        </mxCell>
        <mxCell id="J3m7LMkaWLujBNEeEa09-34" value="&lt;u&gt;Tech_id&lt;/u&gt;" style="shape=partialRectangle;html=1;whiteSpace=wrap;connectable=0;strokeColor=inherit;overflow=hidden;fillColor=none;top=0;left=0;bottom=0;right=0;pointerEvents=1;" parent="J3m7LMkaWLujBNEeEa09-33" vertex="1">
          <mxGeometry width="60" height="40" as="geometry">
            <mxRectangle width="60" height="40" as="alternateBounds" />
          </mxGeometry>
        </mxCell>
        <mxCell id="J3m7LMkaWLujBNEeEa09-35" value="No" style="shape=partialRectangle;html=1;whiteSpace=wrap;connectable=0;strokeColor=inherit;overflow=hidden;fillColor=none;top=0;left=0;bottom=0;right=0;pointerEvents=1;" parent="J3m7LMkaWLujBNEeEa09-33" vertex="1">
          <mxGeometry x="60" width="60" height="40" as="geometry">
            <mxRectangle width="60" height="40" as="alternateBounds" />
          </mxGeometry>
        </mxCell>
        <mxCell id="J3m7LMkaWLujBNEeEa09-36" value="City" style="shape=partialRectangle;html=1;whiteSpace=wrap;connectable=0;strokeColor=inherit;overflow=hidden;fillColor=none;top=0;left=0;bottom=0;right=0;pointerEvents=1;" parent="J3m7LMkaWLujBNEeEa09-33" vertex="1">
          <mxGeometry x="120" width="60" height="40" as="geometry">
            <mxRectangle width="60" height="40" as="alternateBounds" />
          </mxGeometry>
        </mxCell>
        <mxCell id="J3m7LMkaWLujBNEeEa09-37" value="Street" style="shape=partialRectangle;html=1;whiteSpace=wrap;connectable=0;strokeColor=inherit;overflow=hidden;fillColor=none;top=0;left=0;bottom=0;right=0;pointerEvents=1;" parent="J3m7LMkaWLujBNEeEa09-33" vertex="1">
          <mxGeometry x="180" width="60" height="40" as="geometry">
            <mxRectangle width="60" height="40" as="alternateBounds" />
          </mxGeometry>
        </mxCell>
        <mxCell id="J3m7LMkaWLujBNEeEa09-38" value="T_name" style="shape=partialRectangle;html=1;whiteSpace=wrap;connectable=0;strokeColor=inherit;overflow=hidden;fillColor=none;top=0;left=0;bottom=0;right=0;pointerEvents=1;" parent="J3m7LMkaWLujBNEeEa09-33" vertex="1">
          <mxGeometry x="240" width="60" height="40" as="geometry">
            <mxRectangle width="60" height="40" as="alternateBounds" />
          </mxGeometry>
        </mxCell>
        <mxCell id="J3m7LMkaWLujBNEeEa09-40" value="T_nic" style="shape=partialRectangle;html=1;whiteSpace=wrap;connectable=0;strokeColor=inherit;overflow=hidden;fillColor=none;top=0;left=0;bottom=0;right=0;pointerEvents=1;" parent="J3m7LMkaWLujBNEeEa09-33" vertex="1">
          <mxGeometry x="300" width="60" height="40" as="geometry">
            <mxRectangle width="60" height="40" as="alternateBounds" />
          </mxGeometry>
        </mxCell>
        <mxCell id="J3m7LMkaWLujBNEeEa09-41" value="Email" style="shape=partialRectangle;html=1;whiteSpace=wrap;connectable=0;strokeColor=inherit;overflow=hidden;fillColor=none;top=0;left=0;bottom=0;right=0;pointerEvents=1;" parent="J3m7LMkaWLujBNEeEa09-33" vertex="1">
          <mxGeometry x="360" width="60" height="40" as="geometry">
            <mxRectangle width="60" height="40" as="alternateBounds" />
          </mxGeometry>
        </mxCell>
        <mxCell id="J3m7LMkaWLujBNEeEa09-42" value="Civil_status" style="shape=partialRectangle;html=1;whiteSpace=wrap;connectable=0;strokeColor=inherit;overflow=hidden;fillColor=none;top=0;left=0;bottom=0;right=0;pointerEvents=1;" parent="J3m7LMkaWLujBNEeEa09-33" vertex="1">
          <mxGeometry x="420" width="80" height="40" as="geometry">
            <mxRectangle width="80" height="40" as="alternateBounds" />
          </mxGeometry>
        </mxCell>
        <mxCell id="J3m7LMkaWLujBNEeEa09-43" value="TECH_OFFICER_PHONE" style="text;strokeColor=none;align=center;fillColor=none;html=1;verticalAlign=middle;whiteSpace=wrap;rounded=0;" parent="_tiB8tEmEpVmkrLslOVU-1" vertex="1">
          <mxGeometry x="90" y="1890" width="130" height="30" as="geometry" />
        </mxCell>
        <mxCell id="J3m7LMkaWLujBNEeEa09-45" value="" style="shape=table;startSize=0;container=1;collapsible=0;childLayout=tableLayout;" parent="_tiB8tEmEpVmkrLslOVU-1" vertex="1">
          <mxGeometry x="80" y="1930" width="120" height="40" as="geometry" />
        </mxCell>
        <mxCell id="J3m7LMkaWLujBNEeEa09-46" value="" style="shape=tableRow;horizontal=0;startSize=0;swimlaneHead=0;swimlaneBody=0;strokeColor=inherit;top=0;left=0;bottom=0;right=0;collapsible=0;dropTarget=0;fillColor=none;points=[[0,0.5],[1,0.5]];portConstraint=eastwest;" parent="J3m7LMkaWLujBNEeEa09-45" vertex="1">
          <mxGeometry width="120" height="40" as="geometry" />
        </mxCell>
        <mxCell id="J3m7LMkaWLujBNEeEa09-47" value="&lt;u&gt;Tech_id&lt;/u&gt;" style="shape=partialRectangle;html=1;whiteSpace=wrap;connectable=0;strokeColor=inherit;overflow=hidden;fillColor=none;top=0;left=0;bottom=0;right=0;pointerEvents=1;" parent="J3m7LMkaWLujBNEeEa09-46" vertex="1">
          <mxGeometry width="60" height="40" as="geometry">
            <mxRectangle width="60" height="40" as="alternateBounds" />
          </mxGeometry>
        </mxCell>
        <mxCell id="J3m7LMkaWLujBNEeEa09-48" value="&lt;u&gt;Phone&lt;/u&gt;" style="shape=partialRectangle;html=1;whiteSpace=wrap;connectable=0;strokeColor=inherit;overflow=hidden;fillColor=none;top=0;left=0;bottom=0;right=0;pointerEvents=1;" parent="J3m7LMkaWLujBNEeEa09-46" vertex="1">
          <mxGeometry x="60" width="60" height="40" as="geometry">
            <mxRectangle width="60" height="40" as="alternateBounds" />
          </mxGeometry>
        </mxCell>
        <mxCell id="J3m7LMkaWLujBNEeEa09-55" style="edgeStyle=orthogonalEdgeStyle;rounded=0;orthogonalLoop=1;jettySize=auto;html=1;entryX=0.046;entryY=1.1;entryDx=0;entryDy=0;entryPerimeter=0;" parent="_tiB8tEmEpVmkrLslOVU-1" source="J3m7LMkaWLujBNEeEa09-46" target="J3m7LMkaWLujBNEeEa09-33" edge="1">
          <mxGeometry relative="1" as="geometry">
            <mxPoint x="40" y="1900" as="targetPoint" />
            <Array as="points">
              <mxPoint x="110" y="1990" />
              <mxPoint x="40" y="1990" />
              <mxPoint x="40" y="1886" />
              <mxPoint x="103" y="1886" />
            </Array>
          </mxGeometry>
        </mxCell>
      </root>
    </mxGraphModel>
  </diagram>
</mxfile>
